<svg width="20" height="15" viewBox="0 0 20 15" fill="none" xmlns="http://www.w3.org/2000/svg">
<path d="M4.72727 11.7188C5.54545 11.7188 6.33712 11.8164 7.10227 12.0117C7.86742 12.207 8.62121 12.5 9.36364 12.8906V2.88281C8.68182 2.41406 7.94318 2.05078 7.14773 1.79297C6.35227 1.53516 5.54545 1.40625 4.72727 1.40625C4.15152 1.40625 3.58712 1.48047 3.03409 1.62891C2.48106 1.77734 1.92424 1.96094 1.36364 2.17969V12.3516C1.83333 12.1328 2.36742 11.9727 2.96591 11.8711C3.56439 11.7695 4.15152 11.7188 4.72727 11.7188ZM10.7273 12.8906C11.4848 12.5 12.2273 12.207 12.9545 12.0117C13.6818 11.8164 14.4545 11.7188 15.2727 11.7188C15.8485 11.7188 16.4432 11.7656 17.0568 11.8594C17.6705 11.9531 18.197 12.0781 18.6364 12.2344V2.17969C18.1212 1.91406 17.5758 1.71875 17 1.59375C16.4242 1.46875 15.8485 1.40625 15.2727 1.40625C14.4545 1.40625 13.6629 1.53516 12.8977 1.79297C12.1326 2.05078 11.4091 2.41406 10.7273 2.88281V12.8906ZM10.0455 15C9.27273 14.4062 8.43182 13.9492 7.52273 13.6289C6.61364 13.3086 5.68182 13.1484 4.72727 13.1484C4.16667 13.1484 3.62121 13.2188 3.09091 13.3594C2.56061 13.5 2.0303 13.6719 1.5 13.875C1.15152 14.0469 0.814394 14.0234 0.488636 13.8047C0.162879 13.5859 0 13.2734 0 12.8672V2.01562C0 1.78125 0.0530303 1.56641 0.159091 1.37109C0.265151 1.17578 0.424242 1.02344 0.636364 0.914062C1.27273 0.601562 1.93561 0.371094 2.625 0.222656C3.31439 0.0742189 4.01515 0 4.72727 0C5.68182 0 6.60985 0.132813 7.51136 0.398438C8.41288 0.664063 9.25758 1.07031 10.0455 1.61719C10.8182 1.07031 11.6477 0.664063 12.5341 0.398438C13.4205 0.132813 14.3333 0 15.2727 0C15.9848 0 16.6818 0.0742189 17.3636 0.222656C18.0455 0.371094 18.7045 0.601562 19.3409 0.914062C19.553 1.02344 19.7159 1.17578 19.8295 1.37109C19.9432 1.56641 20 1.78125 20 2.01562V12.8672C20 13.3047 19.8295 13.6367 19.4886 13.8633C19.1477 14.0898 18.8106 14.0937 18.4773 13.875C17.9621 13.6562 17.4394 13.4805 16.9091 13.3477C16.3788 13.2148 15.8333 13.1484 15.2727 13.1484C14.3182 13.1484 13.4015 13.3125 12.5227 13.6406C11.6439 13.9687 10.8182 14.4219 10.0455 15Z" fill="white"/>
</svg>
