<svg width="175" height="61" viewBox="0 0 175 61" fill="none" xmlns="http://www.w3.org/2000/svg">
<rect width="174.909" height="60.3647" rx="9.00966" fill="#C10016" fill-opacity="0.5"/>
<path d="M58.139 23.2075H56.7594L51.1494 14.5639H51.0931C51.1072 14.7938 51.1236 15.0566 51.1424 15.3522C51.1612 15.6432 51.1752 15.9552 51.1846 16.2884C51.1987 16.6169 51.2057 16.9524 51.2057 17.2949V23.2075H50.0936V12.9168H51.4662L57.055 21.5323H57.1043C57.0949 21.368 57.0831 21.1358 57.0691 20.8354C57.055 20.5304 57.0409 20.2043 57.0268 19.8571C57.0174 19.5051 57.0128 19.179 57.0128 18.8787V12.9168H58.139V23.2075ZM63.6574 15.3663C64.5771 15.3663 65.2599 15.5728 65.7057 15.9857C66.1515 16.3987 66.3744 17.058 66.3744 17.9636V23.2075H65.5227L65.2974 22.0672H65.2411C65.0252 22.3488 64.8 22.5858 64.5654 22.7782C64.3308 22.9659 64.0586 23.109 63.7489 23.2075C63.4439 23.3014 63.0685 23.3483 62.6227 23.3483C62.1534 23.3483 61.7358 23.2662 61.3698 23.1019C61.0084 22.9377 60.7222 22.689 60.511 22.3558C60.3046 22.0227 60.2013 21.6003 60.2013 21.0888C60.2013 20.3193 60.5063 19.728 61.1164 19.3151C61.7264 18.9021 62.6555 18.6769 63.9037 18.6393L65.2341 18.583V18.1114C65.2341 17.4451 65.0909 16.9782 64.8047 16.7107C64.5185 16.4432 64.1149 16.3095 63.594 16.3095C63.1905 16.3095 62.8057 16.3682 62.4397 16.4855C62.0736 16.6028 61.7264 16.7412 61.3979 16.9008L61.0389 16.0139C61.3862 15.8356 61.7851 15.683 62.2355 15.5563C62.686 15.4296 63.16 15.3663 63.6574 15.3663ZM65.22 19.4066L64.0445 19.4558C63.0825 19.4934 62.4045 19.6506 62.0103 19.9274C61.6161 20.2043 61.419 20.5961 61.419 21.1029C61.419 21.544 61.5528 21.8701 61.8202 22.0813C62.0877 22.2925 62.442 22.3981 62.8831 22.3981C63.5682 22.3981 64.129 22.208 64.5654 21.8279C65.0018 21.4478 65.22 20.8777 65.22 20.1175V19.4066ZM69.9501 12.2551V14.9932C69.9501 15.3076 69.9407 15.6127 69.9219 15.9083C69.9078 16.2039 69.8961 16.4338 69.8867 16.5981H69.9501C70.1612 16.2508 70.4662 15.9576 70.8651 15.7182C71.264 15.4789 71.7731 15.3593 72.3925 15.3593C73.3592 15.3593 74.1288 15.6948 74.7013 16.3658C75.2784 17.0321 75.567 18.0246 75.567 19.3432C75.567 20.2113 75.4356 20.9434 75.1728 21.5393C74.9101 22.1353 74.5394 22.5858 74.0607 22.8908C73.5821 23.1958 73.0166 23.3483 72.3644 23.3483C71.7543 23.3483 71.2522 23.2357 70.8581 23.0104C70.4686 22.7805 70.1683 22.5013 69.9571 22.1728H69.8656L69.6263 23.2075H68.7816V12.2551H69.9501ZM72.2025 16.3377C71.6441 16.3377 71.2006 16.4479 70.8721 16.6685C70.5437 16.8843 70.3067 17.2128 70.1612 17.6539C70.0204 18.0903 69.9501 18.644 69.9501 19.3151V19.3784C69.9501 20.3498 70.112 21.0935 70.4357 21.6097C70.7595 22.1212 71.3484 22.3769 72.2025 22.3769C72.9204 22.3769 73.4577 22.1142 73.8144 21.5886C74.1757 21.063 74.3563 20.3122 74.3563 19.3362C74.3563 18.3414 74.178 17.5929 73.8214 17.0908C73.4695 16.5887 72.9298 16.3377 72.2025 16.3377ZM80.4942 15.3663C81.4139 15.3663 82.0967 15.5728 82.5425 15.9857C82.9883 16.3987 83.2112 17.058 83.2112 17.9636V23.2075H82.3595L82.1342 22.0672H82.0779C81.8621 22.3488 81.6368 22.5858 81.4022 22.7782C81.1676 22.9659 80.8954 23.109 80.5857 23.2075C80.2807 23.3014 79.9053 23.3483 79.4595 23.3483C78.9902 23.3483 78.5726 23.2662 78.2066 23.1019C77.8452 22.9377 77.559 22.689 77.3478 22.3558C77.1414 22.0227 77.0381 21.6003 77.0381 21.0888C77.0381 20.3193 77.3431 19.728 77.9532 19.3151C78.5632 18.9021 79.4923 18.6769 80.7405 18.6393L82.0709 18.583V18.1114C82.0709 17.4451 81.9277 16.9782 81.6415 16.7107C81.3553 16.4432 80.9517 16.3095 80.4308 16.3095C80.0273 16.3095 79.6425 16.3682 79.2765 16.4855C78.9105 16.6028 78.5632 16.7412 78.2347 16.9008L77.8757 16.0139C78.223 15.8356 78.6219 15.683 79.0723 15.5563C79.5228 15.4296 79.9968 15.3663 80.4942 15.3663ZM82.0568 19.4066L80.8813 19.4558C79.9193 19.4934 79.2413 19.6506 78.8471 19.9274C78.4529 20.2043 78.2558 20.5961 78.2558 21.1029C78.2558 21.544 78.3896 21.8701 78.6571 22.0813C78.9245 22.2925 79.2788 22.3981 79.7199 22.3981C80.405 22.3981 80.9658 22.208 81.4022 21.8279C81.8386 21.4478 82.0568 20.8777 82.0568 20.1175V19.4066ZM87.3148 23.2075L84.3866 15.493H85.6395L87.3359 20.1597C87.4532 20.4788 87.5729 20.8308 87.6949 21.2155C87.8169 21.6003 87.9013 21.91 87.9483 22.1447H87.9975C88.0538 21.91 88.1477 21.6003 88.2791 21.2155C88.4105 20.8261 88.5301 20.4741 88.6381 20.1597L90.3344 15.493H91.5873L88.6521 23.2075H87.3148ZM93.9946 15.493V23.2075H92.8262V15.493H93.9946ZM93.4245 12.6071C93.6168 12.6071 93.7811 12.6704 93.9172 12.7971C94.0579 12.9191 94.1283 13.1115 94.1283 13.3743C94.1283 13.6324 94.0579 13.8248 93.9172 13.9515C93.7811 14.0782 93.6168 14.1415 93.4245 14.1415C93.2227 14.1415 93.0537 14.0782 92.9177 13.9515C92.7863 13.8248 92.7206 13.6324 92.7206 13.3743C92.7206 13.1115 92.7863 12.9191 92.9177 12.7971C93.0537 12.6704 93.2227 12.6071 93.4245 12.6071ZM98.964 22.391C99.1564 22.391 99.3535 22.3746 99.5552 22.3417C99.757 22.3089 99.9213 22.269 100.048 22.2221V23.1301C99.9119 23.1911 99.7218 23.2427 99.4778 23.2849C99.2385 23.3272 99.0039 23.3483 98.7739 23.3483C98.3657 23.3483 97.995 23.2779 97.6618 23.1371C97.3286 22.9917 97.0612 22.7477 96.8594 22.4051C96.6623 22.0625 96.5638 21.5886 96.5638 20.9833V16.408H95.4657V15.8379L96.5708 15.3804L97.0354 13.7051H97.7392V15.493H99.9987V16.408H97.7392V20.9481C97.7392 21.4314 97.8495 21.7927 98.0701 22.032C98.2953 22.2714 98.5933 22.391 98.964 22.391ZM104.581 15.3522C105.238 15.3522 105.801 15.4977 106.27 15.7886C106.74 16.0796 107.098 16.4878 107.347 17.0134C107.596 17.5342 107.72 18.1443 107.72 18.8435V19.5685H102.392C102.406 20.4741 102.631 21.1639 103.068 21.6379C103.504 22.1118 104.119 22.3488 104.912 22.3488C105.4 22.3488 105.832 22.3042 106.207 22.215C106.582 22.1259 106.972 21.9945 107.375 21.8209V22.8485C106.986 23.0222 106.599 23.1489 106.214 23.2286C105.834 23.3084 105.383 23.3483 104.862 23.3483C104.121 23.3483 103.474 23.1981 102.92 22.8978C102.371 22.5928 101.944 22.147 101.639 21.5604C101.334 20.9739 101.181 20.2559 101.181 19.4066C101.181 18.576 101.32 17.858 101.596 17.2527C101.878 16.6427 102.272 16.1734 102.779 15.8449C103.291 15.5165 103.891 15.3522 104.581 15.3522ZM104.567 16.3095C103.943 16.3095 103.445 16.5136 103.075 16.9219C102.704 17.3301 102.483 17.9003 102.413 18.6323H106.495C106.491 18.1724 106.418 17.7689 106.277 17.4216C106.141 17.0697 105.932 16.7975 105.651 16.6051C105.369 16.408 105.008 16.3095 104.567 16.3095ZM117.103 15.3522C118.018 15.3522 118.71 15.5775 119.179 16.0279C119.649 16.4737 119.883 17.1917 119.883 18.1818V23.2075H118.729V18.2592C118.729 17.6164 118.581 17.1354 118.285 16.8163C117.995 16.4972 117.546 16.3377 116.941 16.3377C116.087 16.3377 115.486 16.5793 115.139 17.0626C114.792 17.546 114.618 18.2475 114.618 19.1672V23.2075H113.45V15.493H114.393L114.569 16.6051H114.632C114.797 16.333 115.005 16.1054 115.259 15.9224C115.512 15.7347 115.796 15.5939 116.11 15.5C116.425 15.4015 116.756 15.3522 117.103 15.3522ZM125.176 15.3663C126.096 15.3663 126.779 15.5728 127.225 15.9857C127.671 16.3987 127.893 17.058 127.893 17.9636V23.2075H127.042L126.817 22.0672H126.76C126.544 22.3488 126.319 22.5858 126.084 22.7782C125.85 22.9659 125.578 23.109 125.268 23.2075C124.963 23.3014 124.588 23.3483 124.142 23.3483C123.673 23.3483 123.255 23.2662 122.889 23.1019C122.528 22.9377 122.241 22.689 122.03 22.3558C121.824 22.0227 121.72 21.6003 121.72 21.0888C121.72 20.3193 122.025 19.728 122.635 19.3151C123.245 18.9021 124.175 18.6769 125.423 18.6393L126.753 18.583V18.1114C126.753 17.4451 126.61 16.9782 126.324 16.7107C126.038 16.4432 125.634 16.3095 125.113 16.3095C124.71 16.3095 124.325 16.3682 123.959 16.4855C123.593 16.6028 123.245 16.7412 122.917 16.9008L122.558 16.0139C122.905 15.8356 123.304 15.683 123.755 15.5563C124.205 15.4296 124.679 15.3663 125.176 15.3663ZM126.739 19.4066L125.564 19.4558C124.602 19.4934 123.924 19.6506 123.529 19.9274C123.135 20.2043 122.938 20.5961 122.938 21.1029C122.938 21.544 123.072 21.8701 123.339 22.0813C123.607 22.2925 123.961 22.3981 124.402 22.3981C125.087 22.3981 125.648 22.208 126.084 21.8279C126.521 21.4478 126.739 20.8777 126.739 20.1175V19.4066Z" fill="white"/>
<path d="M60.7573 47L59.3608 43.0352H53.9019L52.5054 47H50.0347L55.3472 32.6641H57.9448L63.2476 47H60.7573ZM58.7554 41.0234L57.3979 37.1172C57.3459 36.9479 57.271 36.7103 57.1733 36.4043C57.0757 36.0918 56.978 35.776 56.8804 35.457C56.7827 35.1315 56.7013 34.8581 56.6362 34.6367C56.5711 34.9036 56.4897 35.2031 56.3921 35.5352C56.3009 35.8607 56.2098 36.1667 56.1187 36.4531C56.034 36.7396 55.9689 36.9609 55.9233 37.1172L54.5562 41.0234H58.7554ZM70.4448 35.9844C71.7274 35.9844 72.756 36.4531 73.5308 37.3906C74.312 38.3281 74.7026 39.7214 74.7026 41.5703C74.7026 42.7943 74.5203 43.8262 74.1558 44.666C73.7977 45.4993 73.2931 46.1309 72.6421 46.5605C71.9976 46.9837 71.2456 47.1953 70.3862 47.1953C69.8394 47.1953 69.3641 47.1237 68.9604 46.9805C68.5568 46.8372 68.2118 46.6517 67.9253 46.4238C67.6388 46.1895 67.3979 45.9355 67.2026 45.6621H67.0659C67.0985 45.9225 67.1278 46.2122 67.1538 46.5312C67.1864 46.8438 67.2026 47.1302 67.2026 47.3906V51.7949H64.8979V36.1895H66.7729L67.0952 37.6836H67.2026C67.4045 37.3776 67.6486 37.0944 67.9351 36.834C68.228 36.5736 68.5796 36.3685 68.9897 36.2188C69.4064 36.0625 69.8914 35.9844 70.4448 35.9844ZM69.8296 37.8594C69.1981 37.8594 68.6903 37.9863 68.3062 38.2402C67.9285 38.4876 67.6519 38.862 67.4761 39.3633C67.3068 39.8646 67.2157 40.4928 67.2026 41.248V41.5703C67.2026 42.3711 67.284 43.0514 67.4468 43.6113C67.616 44.1647 67.8927 44.5879 68.2769 44.8809C68.6675 45.1673 69.1948 45.3105 69.8589 45.3105C70.4188 45.3105 70.881 45.1576 71.2456 44.8516C71.6167 44.5456 71.8934 44.1094 72.0757 43.543C72.258 42.9766 72.3491 42.3092 72.3491 41.541C72.3491 40.3757 72.1408 39.4707 71.7241 38.8262C71.314 38.1816 70.6825 37.8594 69.8296 37.8594ZM82.9058 35.9844C84.1883 35.9844 85.217 36.4531 85.9917 37.3906C86.7729 38.3281 87.1636 39.7214 87.1636 41.5703C87.1636 42.7943 86.9813 43.8262 86.6167 44.666C86.2586 45.4993 85.7541 46.1309 85.103 46.5605C84.4585 46.9837 83.7065 47.1953 82.8472 47.1953C82.3003 47.1953 81.825 47.1237 81.4214 46.9805C81.0177 46.8372 80.6727 46.6517 80.3862 46.4238C80.0998 46.1895 79.8589 45.9355 79.6636 45.6621H79.5269C79.5594 45.9225 79.5887 46.2122 79.6147 46.5312C79.6473 46.8438 79.6636 47.1302 79.6636 47.3906V51.7949H77.3589V36.1895H79.2339L79.5562 37.6836H79.6636C79.8654 37.3776 80.1095 37.0944 80.396 36.834C80.689 36.5736 81.0405 36.3685 81.4507 36.2188C81.8674 36.0625 82.3524 35.9844 82.9058 35.9844ZM82.2905 37.8594C81.659 37.8594 81.1512 37.9863 80.7671 38.2402C80.3895 38.4876 80.1128 38.862 79.937 39.3633C79.7677 39.8646 79.6766 40.4928 79.6636 41.248V41.5703C79.6636 42.3711 79.745 43.0514 79.9077 43.6113C80.077 44.1647 80.3537 44.5879 80.7378 44.8809C81.1284 45.1673 81.6558 45.3105 82.3198 45.3105C82.8797 45.3105 83.342 45.1576 83.7065 44.8516C84.0776 44.5456 84.3543 44.1094 84.5366 43.543C84.7189 42.9766 84.8101 42.3092 84.8101 41.541C84.8101 40.3757 84.6017 39.4707 84.1851 38.8262C83.7749 38.1816 83.1434 37.8594 82.2905 37.8594ZM103.492 43.1133C103.492 43.9596 103.283 44.6888 102.867 45.3008C102.457 45.9128 101.864 46.3815 101.089 46.707C100.321 47.0326 99.4032 47.1953 98.3354 47.1953C97.8146 47.1953 97.3166 47.166 96.8413 47.1074C96.366 47.0488 95.9168 46.9642 95.4937 46.8535C95.077 46.7363 94.6961 46.5964 94.3511 46.4336V44.2266C94.9305 44.4805 95.5783 44.7116 96.2944 44.9199C97.0106 45.1217 97.7397 45.2227 98.4819 45.2227C99.0874 45.2227 99.5887 45.1445 99.9858 44.9883C100.389 44.8255 100.689 44.5977 100.884 44.3047C101.08 44.0052 101.177 43.6569 101.177 43.2598C101.177 42.8366 101.063 42.4785 100.835 42.1855C100.608 41.8926 100.263 41.6257 99.8003 41.3848C99.3446 41.1374 98.7716 40.8737 98.0815 40.5938C97.6128 40.4049 97.1636 40.1901 96.7339 39.9492C96.3107 39.7083 95.9331 39.4251 95.6011 39.0996C95.269 38.7741 95.0054 38.39 94.8101 37.9473C94.6213 37.498 94.5269 36.9707 94.5269 36.3652C94.5269 35.5579 94.7189 34.8678 95.103 34.2949C95.4937 33.722 96.0405 33.2826 96.7437 32.9766C97.4533 32.6706 98.2801 32.5176 99.2241 32.5176C99.9728 32.5176 100.676 32.5957 101.333 32.752C101.998 32.9082 102.649 33.1296 103.287 33.416L102.544 35.3008C101.958 35.0599 101.389 34.8678 100.835 34.7246C100.289 34.5814 99.7287 34.5098 99.1558 34.5098C98.661 34.5098 98.241 34.5846 97.896 34.7344C97.5509 34.8841 97.2873 35.0957 97.105 35.3691C96.9292 35.6361 96.8413 35.9551 96.8413 36.3262C96.8413 36.7428 96.9422 37.0944 97.144 37.3809C97.3524 37.6608 97.6714 37.918 98.1011 38.1523C98.5373 38.3867 99.0972 38.6471 99.7808 38.9336C100.569 39.2591 101.236 39.6009 101.783 39.959C102.336 40.3171 102.759 40.7467 103.052 41.248C103.345 41.7428 103.492 42.3646 103.492 43.1133ZM110.035 45.3398C110.334 45.3398 110.63 45.3138 110.923 45.2617C111.216 45.2031 111.483 45.1348 111.724 45.0566V46.7949C111.47 46.9056 111.141 47 110.738 47.0781C110.334 47.1562 109.914 47.1953 109.478 47.1953C108.866 47.1953 108.316 47.0944 107.828 46.8926C107.339 46.6842 106.952 46.3294 106.666 45.8281C106.379 45.3268 106.236 44.6335 106.236 43.748V37.9375H104.761V36.9121L106.343 36.1016L107.095 33.7871H108.541V36.1895H111.636V37.9375H108.541V43.7188C108.541 44.2656 108.677 44.6725 108.951 44.9395C109.224 45.2064 109.585 45.3398 110.035 45.3398ZM123.492 41.5703C123.492 42.4688 123.375 43.2663 123.14 43.9629C122.906 44.6595 122.564 45.2487 122.115 45.7305C121.666 46.2057 121.125 46.5703 120.494 46.8242C119.862 47.0716 119.149 47.1953 118.355 47.1953C117.613 47.1953 116.932 47.0716 116.314 46.8242C115.695 46.5703 115.158 46.2057 114.703 45.7305C114.253 45.2487 113.905 44.6595 113.658 43.9629C113.41 43.2663 113.287 42.4688 113.287 41.5703C113.287 40.3789 113.492 39.3698 113.902 38.543C114.319 37.7096 114.911 37.0749 115.679 36.6387C116.447 36.2025 117.362 35.9844 118.423 35.9844C119.419 35.9844 120.298 36.2025 121.06 36.6387C121.822 37.0749 122.417 37.7096 122.847 38.543C123.277 39.3763 123.492 40.3854 123.492 41.5703ZM115.65 41.5703C115.65 42.3581 115.744 43.0319 115.933 43.5918C116.128 44.1517 116.428 44.5814 116.832 44.8809C117.235 45.1738 117.756 45.3203 118.394 45.3203C119.032 45.3203 119.553 45.1738 119.957 44.8809C120.36 44.5814 120.656 44.1517 120.845 43.5918C121.034 43.0319 121.128 42.3581 121.128 41.5703C121.128 40.7826 121.034 40.1152 120.845 39.5684C120.656 39.015 120.36 38.5951 119.957 38.3086C119.553 38.0156 119.029 37.8691 118.384 37.8691C117.434 37.8691 116.74 38.1882 116.304 38.8262C115.868 39.4642 115.65 40.3789 115.65 41.5703ZM131.607 35.9844C131.789 35.9844 131.988 35.9941 132.203 36.0137C132.417 36.0332 132.603 36.0592 132.759 36.0918L132.544 38.2402C132.408 38.2012 132.238 38.1719 132.037 38.1523C131.841 38.1328 131.666 38.123 131.509 38.123C131.099 38.123 130.708 38.1914 130.337 38.3281C129.966 38.4583 129.638 38.6602 129.351 38.9336C129.065 39.2005 128.84 39.5358 128.677 39.9395C128.514 40.3431 128.433 40.8118 128.433 41.3457V47H126.128V36.1895H127.925L128.238 38.0938H128.345C128.56 37.7096 128.827 37.3581 129.146 37.0391C129.465 36.7201 129.83 36.4661 130.24 36.2773C130.656 36.082 131.112 35.9844 131.607 35.9844ZM139.068 35.9844C140.031 35.9844 140.858 36.1829 141.548 36.5801C142.238 36.9772 142.769 37.5404 143.14 38.2695C143.511 38.9987 143.697 39.8711 143.697 40.8867V42.1172H136.48C136.506 43.1654 136.786 43.9727 137.32 44.5391C137.86 45.1055 138.615 45.3887 139.585 45.3887C140.276 45.3887 140.894 45.3236 141.441 45.1934C141.994 45.0566 142.564 44.8581 143.15 44.5977V46.4629C142.61 46.7168 142.059 46.9023 141.5 47.0195C140.94 47.1367 140.269 47.1953 139.488 47.1953C138.427 47.1953 137.492 46.9902 136.685 46.5801C135.884 46.1634 135.256 45.5449 134.8 44.7246C134.351 43.9043 134.126 42.8854 134.126 41.668C134.126 40.457 134.332 39.4284 134.742 38.582C135.152 37.7357 135.728 37.0911 136.47 36.6484C137.212 36.2057 138.078 35.9844 139.068 35.9844ZM139.068 37.7129C138.345 37.7129 137.759 37.9473 137.31 38.416C136.867 38.8848 136.607 39.5716 136.529 40.4766H141.451C141.444 39.9362 141.353 39.4577 141.177 39.041C141.008 38.6243 140.748 38.2988 140.396 38.0645C140.051 37.8301 139.608 37.7129 139.068 37.7129Z" fill="white"/>
<path d="M38.0688 31.2455C38.0508 28.1852 39.4384 25.8788 42.2403 24.1781C40.6732 21.9345 38.3023 20.7005 35.177 20.4627C32.2179 20.2293 28.9803 22.1858 27.7949 22.1858C26.5421 22.1858 23.6772 20.5435 21.4231 20.5435C16.7711 20.6152 11.8272 24.2499 11.8272 31.6449C11.8272 33.8301 12.2269 36.0872 13.0261 38.4116C14.0948 41.4719 17.9476 48.9701 21.9664 48.8489C24.0679 48.7996 25.5542 47.3592 28.2888 47.3592C30.9426 47.3592 32.3167 48.8489 34.6606 48.8489C38.7154 48.7906 42.1999 41.9745 43.2147 38.9052C37.7769 36.343 38.0688 31.4026 38.0688 31.2455ZM33.3494 17.5594C35.6261 14.8581 35.4195 12.3991 35.3521 11.5151C33.3405 11.6318 31.0145 12.8837 29.6898 14.4229C28.2304 16.0742 27.3728 18.1159 27.5569 20.4178C29.7302 20.5838 31.715 19.4665 33.3494 17.5594Z" fill="white"/>
</svg>
