<svg width="47" height="47" viewBox="0 0 47 47" fill="none" xmlns="http://www.w3.org/2000/svg">
<path d="M34.0688 24.2455C34.0508 21.1852 35.4384 18.8788 38.2403 17.1781C36.6732 14.9345 34.3023 13.7005 31.177 13.4627C28.2179 13.2293 24.9803 15.1858 23.7949 15.1858C22.5421 15.1858 19.6772 13.5435 17.4231 13.5435C12.7711 13.6152 7.82721 17.2499 7.82721 24.6449C7.82721 26.8301 8.22685 29.0872 9.02613 31.4116C10.0948 34.4719 13.9476 41.9701 17.9664 41.8489C20.0679 41.7996 21.5542 40.3592 24.2888 40.3592C26.9426 40.3592 28.3167 41.8489 30.6606 41.8489C34.7154 41.7906 38.1999 34.9745 39.2147 31.9052C33.7769 29.343 34.0688 24.4026 34.0688 24.2455ZM29.3494 10.5594C31.6261 7.85813 31.4195 5.39912 31.3521 4.51514C29.3405 4.6318 27.0145 5.88374 25.6898 7.42286C24.2304 9.07417 23.3728 11.1159 23.5569 13.4178C25.7302 13.5838 27.715 12.4665 29.3494 10.5594Z" fill="white"/>
</svg>
