<svg width="11" height="10" viewBox="0 0 11 10" fill="none" xmlns="http://www.w3.org/2000/svg">
<g clip-path="url(#clip0_1129_3751)">
<path d="M0.6875 5C0.6875 6.16032 1.19453 7.27312 2.09705 8.09359C2.99957 8.91406 4.22365 9.375 5.5 9.375C6.77635 9.375 8.00043 8.91406 8.90295 8.09359C9.80547 7.27312 10.3125 6.16032 10.3125 5C10.3125 3.83968 9.80547 2.72688 8.90295 1.90641C8.00043 1.08594 6.77635 0.625 5.5 0.625C4.22365 0.625 2.99957 1.08594 2.09705 1.90641C1.19453 2.72688 0.6875 3.83968 0.6875 5ZM11 5C11 6.32608 10.4205 7.59785 9.38909 8.53553C8.35764 9.47322 6.95869 10 5.5 10C4.04131 10 2.64236 9.47322 1.61091 8.53553C0.579463 7.59785 0 6.32608 0 5C0 3.67392 0.579463 2.40215 1.61091 1.46447C2.64236 0.526784 4.04131 0 5.5 0C6.95869 0 8.35764 0.526784 9.38909 1.46447C10.4205 2.40215 11 3.67392 11 5ZM5.60038 3.12C4.76713 3.12 4.27556 3.695 4.27556 4.68375V5.34625C4.27556 6.32812 4.75887 6.885 5.60038 6.885C6.27344 6.885 6.72856 6.51875 6.78906 5.99875H7.67938V6.05688C7.61063 6.96187 6.7485 7.59875 5.59625 7.59875C4.15869 7.59875 3.34881 6.76375 3.34881 5.34688V4.67625C3.34881 3.26312 4.1745 2.4025 5.59694 2.4025C6.75262 2.4025 7.61475 3.06125 7.67938 4.01V4.065H6.78906C6.72856 3.51562 6.26106 3.12 5.60038 3.12Z" fill="white"/>
</g>
<defs>
<clipPath id="clip0_1129_3751">
<rect width="11" height="10" fill="white"/>
</clipPath>
</defs>
</svg>
