<svg width="23" height="23" viewBox="0 0 23 23" fill="none" xmlns="http://www.w3.org/2000/svg">
<g clip-path="url(#clip0_2208_3059)">
<path d="M1.65042 19.6892C1.21031 19.6892 0.825208 19.5263 0.495125 19.2006C0.165042 18.8749 0 18.4948 0 18.0605V3.94511C0 3.51079 0.165042 3.13076 0.495125 2.80502C0.825208 2.47928 1.21031 2.31641 1.65042 2.31641H20.3551C20.7952 2.31641 21.1803 2.47928 21.5104 2.80502C21.8405 3.13076 22.0056 3.51079 22.0056 3.94511V18.0605C22.0056 18.4948 21.8405 18.8749 21.5104 19.2006C21.1803 19.5263 20.7952 19.6892 20.3551 19.6892H1.65042ZM11.0028 11.4914L20.3551 5.43808V3.94511L11.0028 9.86272L1.65042 3.94511V5.43808L11.0028 11.4914Z" fill="#C10016"/>
</g>
<defs>
<clipPath id="clip0_2208_3059">
<rect width="22.0056" height="22.0056" fill="white"/>
</clipPath>
</defs>
</svg>
