<svg width="23" height="23" viewBox="0 0 23 23" fill="none" xmlns="http://www.w3.org/2000/svg">
<g clip-path="url(#clip0_1319_4471)">
<path d="M2.49978 20.2004C2.05967 20.2004 1.67457 20.0376 1.34449 19.7118C1.01441 19.3861 0.849365 19.0061 0.849365 18.5717V4.45634C0.849365 4.02202 1.01441 3.64199 1.34449 3.31625C1.67457 2.99051 2.05967 2.82764 2.49978 2.82764H21.2045C21.6446 2.82764 22.0297 2.99051 22.3598 3.31625C22.6899 3.64199 22.8549 4.02202 22.8549 4.45634V18.5717C22.8549 19.0061 22.6899 19.3861 22.3598 19.7118C22.0297 20.0376 21.6446 20.2004 21.2045 20.2004H2.49978ZM11.8521 12.0026L21.2045 5.94931V4.45634L11.8521 10.3739L2.49978 4.45634V5.94931L11.8521 12.0026Z" fill="#C10016"/>
</g>
<defs>
<clipPath id="clip0_1319_4471">
<rect width="22.0056" height="22.0056" fill="white" transform="translate(0.849365 0.51123)"/>
</clipPath>
</defs>
</svg>
