<svg width="28" height="27" viewBox="0 0 28 27" fill="none" xmlns="http://www.w3.org/2000/svg">
<path d="M20.8949 26.3687C20.5305 26.3671 20.1742 26.2606 19.8686 26.062L13.9112 22.2988H13.8876L8.35483 25.8025C7.99742 26.0279 7.58085 26.1417 7.15844 26.1291C6.73603 26.1164 6.32698 25.9781 5.98366 25.7317C5.63119 25.4725 5.36424 25.1139 5.2171 24.7019C5.06995 24.2899 5.04933 23.8433 5.15788 23.4195L6.75046 17.1553C6.75546 17.139 6.75591 17.1215 6.75176 17.1049C6.7476 17.0883 6.73899 17.0731 6.72686 17.061L1.39467 12.6253C1.09082 12.3714 0.869983 12.0323 0.760645 11.6518C0.651307 11.2712 0.658479 10.8666 0.781237 10.4901C0.899353 10.1185 1.12701 9.79122 1.43436 9.55124C1.74171 9.31125 2.11441 9.16974 2.50358 9.14526L9.46374 8.69698C9.47402 8.69574 9.48379 8.69182 9.49207 8.68561C9.50035 8.6794 9.50686 8.67111 9.51092 8.66159L12.1062 2.11433C12.2463 1.75258 12.4926 1.44167 12.8126 1.22242C13.1326 1.00318 13.5114 0.885849 13.8994 0.885849C14.2873 0.885849 14.6661 1.00318 14.9862 1.22242C15.3062 1.44167 15.5524 1.75258 15.6925 2.11433L18.2878 8.66159C18.2919 8.67111 18.2984 8.6794 18.3067 8.68561C18.3149 8.69182 18.3247 8.69574 18.335 8.69698L25.2951 9.14526C25.6843 9.16974 26.057 9.31125 26.3644 9.55124C26.6717 9.79122 26.8994 10.1185 27.0175 10.4901C27.1402 10.8666 27.1474 11.2712 27.0381 11.6518C26.9287 12.0323 26.7079 12.3714 26.404 12.6253L21.0719 17.061C21.0597 17.0731 21.0511 17.0883 21.047 17.1049C21.0428 17.1215 21.0433 17.139 21.0483 17.1553L22.7588 23.915C22.8604 24.2973 22.8437 24.7015 22.711 25.0742C22.5784 25.447 22.3359 25.7708 22.0156 26.003C21.6878 26.2358 21.2969 26.3633 20.8949 26.3687ZM13.8994 20.4113C14.2627 20.4087 14.6191 20.5112 14.9257 20.7062L20.8713 24.4694H20.8949C20.9101 24.4616 20.9224 24.4492 20.9303 24.434C20.9421 24.4222 20.9421 24.4104 20.9303 24.3632L19.2198 17.6036C19.1269 17.2433 19.1375 16.864 19.2501 16.5094C19.3628 16.1547 19.573 15.8389 19.8568 15.5982L25.2008 11.1625C25.2126 11.1507 25.2362 11.1271 25.2126 11.0682C25.189 11.0092 25.189 11.021 25.1772 11.021L18.2052 10.5727C17.8403 10.5464 17.4904 10.4171 17.196 10.2C16.9016 9.98283 16.6748 9.68665 16.5419 9.34581L13.9348 2.81034C13.923 2.77495 13.9112 2.77495 13.8994 2.77495C13.8876 2.77495 13.8758 2.77495 13.864 2.81034L11.2569 9.35761C11.124 9.69845 10.8972 9.99463 10.6027 10.2118C10.3083 10.4289 9.95839 10.5582 9.5935 10.5845L2.62155 11.0328C2.60975 11.0328 2.59796 11.0328 2.58616 11.08C2.57436 11.1271 2.58616 11.1625 2.59796 11.1743L7.94194 15.61C8.22569 15.8507 8.43593 16.1665 8.54859 16.5212C8.66125 16.8758 8.67178 17.2551 8.57897 17.6154L6.98639 23.8914C6.97215 23.9473 6.97462 24.0061 6.99349 24.0606C7.01236 24.1152 7.04681 24.1629 7.09257 24.1981C7.12547 24.2296 7.16868 24.2482 7.21422 24.2504C7.25976 24.2525 7.30454 24.2382 7.3403 24.2099L12.873 20.7062C13.1796 20.5112 13.536 20.4087 13.8994 20.4113Z" fill="#C63A2F"/>
</svg>
