<svg width="31" height="31" viewBox="0 0 31 31" fill="none" xmlns="http://www.w3.org/2000/svg">
<path opacity="0.2" d="M16.4196 22.4966L22.3652 26.2716C23.132 26.7553 24.0758 26.0356 23.8516 25.1509L22.1293 18.3795C22.0827 18.1918 22.0901 17.9948 22.1506 17.8111C22.2112 17.6274 22.3224 17.4646 22.4714 17.3414L27.8036 12.8939C28.4996 12.3159 28.1457 11.148 27.2373 11.089L20.2772 10.6407C20.0873 10.6297 19.9047 10.5635 19.7517 10.4504C19.5988 10.3373 19.4821 10.1821 19.416 10.0037L16.8207 3.46823C16.752 3.27936 16.6268 3.11621 16.4622 3.00092C16.2976 2.88564 16.1015 2.82379 15.9005 2.82379C15.6996 2.82379 15.5035 2.88564 15.3388 3.00092C15.1742 3.11621 15.0491 3.27936 14.9804 3.46823L12.3851 10.0037C12.3189 10.1821 12.2022 10.3373 12.0493 10.4504C11.8964 10.5635 11.7138 10.6297 11.5239 10.6407L4.56373 11.089C3.65537 11.148 3.30146 12.3159 3.99748 12.8939L9.32967 17.3414C9.4787 17.4646 9.58989 17.6274 9.65042 17.8111C9.71094 17.9948 9.71835 18.1918 9.67178 18.3795L8.0792 24.6554C7.80787 25.7171 8.94037 26.5783 9.84873 26.0003L15.3815 22.4966C15.5366 22.3979 15.7167 22.3455 15.9005 22.3455C16.0844 22.3455 16.2644 22.3979 16.4196 22.4966Z" fill="#C63A2F"/>
<path d="M22.8949 27.3687C22.5305 27.367 22.1742 27.2606 21.8686 27.062L15.9112 23.2988H15.8876L10.3548 26.8024C9.99742 27.0279 9.58085 27.1417 9.15844 27.129C8.73603 27.1164 8.32698 26.9781 7.98366 26.7317C7.63119 26.4725 7.36424 26.1139 7.2171 25.7019C7.06995 25.2899 7.04933 24.8433 7.15788 24.4195L8.75046 18.1553C8.75546 18.1389 8.75591 18.1215 8.75176 18.1049C8.7476 18.0882 8.73899 18.0731 8.72686 18.061L3.39467 13.6253C3.09082 13.3714 2.86998 13.0323 2.76064 12.6518C2.65131 12.2712 2.65848 11.8666 2.78124 11.4901C2.89935 11.1185 3.12701 10.7912 3.43436 10.5512C3.74171 10.3112 4.11441 10.1697 4.50358 10.1453L11.4637 9.69698C11.474 9.69574 11.4838 9.69181 11.4921 9.6856C11.5004 9.67939 11.5069 9.67111 11.5109 9.66158L14.1062 3.11432C14.2463 2.75258 14.4926 2.44166 14.8126 2.22242C15.1326 2.00317 15.5114 1.88584 15.8994 1.88584C16.2873 1.88584 16.6661 2.00317 16.9862 2.22242C17.3062 2.44166 17.5524 2.75258 17.6925 3.11432L20.2878 9.66158C20.2919 9.67111 20.2984 9.67939 20.3067 9.6856C20.3149 9.69181 20.3247 9.69574 20.335 9.69698L27.2951 10.1453C27.6843 10.1697 28.057 10.3112 28.3644 10.5512C28.6717 10.7912 28.8994 11.1185 29.0175 11.4901C29.1402 11.8666 29.1474 12.2712 29.0381 12.6518C28.9287 13.0323 28.7079 13.3714 28.404 13.6253L23.0719 18.061C23.0597 18.0731 23.0511 18.0882 23.047 18.1049C23.0428 18.1215 23.0433 18.1389 23.0483 18.1553L24.7588 24.9149C24.8604 25.2973 24.8437 25.7015 24.711 26.0742C24.5784 26.447 24.3359 26.7708 24.0156 27.003C23.6878 27.2357 23.2969 27.3633 22.8949 27.3687ZM15.8994 21.4113C16.2627 21.4087 16.6191 21.5111 16.9257 21.7062L22.8713 25.4694H22.8949C22.9101 25.4615 22.9224 25.4492 22.9303 25.434C22.9421 25.4222 22.9421 25.4104 22.9303 25.3632L21.2198 18.6036C21.1269 18.2432 21.1375 17.864 21.2501 17.5094C21.3628 17.1547 21.573 16.8389 21.8568 16.5981L27.2008 12.1625C27.2126 12.1507 27.2362 12.1271 27.2126 12.0681C27.189 12.0092 27.189 12.021 27.1772 12.021L20.2052 11.5727C19.8403 11.5464 19.4904 11.4171 19.196 11.2C18.9016 10.9828 18.6748 10.6866 18.5419 10.3458L15.9348 3.81033C15.923 3.77494 15.9112 3.77494 15.8994 3.77494C15.8876 3.77494 15.8758 3.77494 15.864 3.81033L13.2569 10.3576C13.124 10.6984 12.8972 10.9946 12.6027 11.2118C12.3083 11.4289 11.9584 11.5582 11.5935 11.5845L4.62155 12.0328C4.60975 12.0328 4.59796 12.0328 4.58616 12.0799C4.57436 12.1271 4.58616 12.1625 4.59796 12.1743L9.94194 16.6099C10.2257 16.8507 10.4359 17.1665 10.5486 17.5212C10.6612 17.8758 10.6718 18.255 10.579 18.6154L8.98639 24.8914C8.97215 24.9473 8.97462 25.0061 8.99349 25.0606C9.01236 25.1151 9.04681 25.1629 9.09257 25.1981C9.12547 25.2296 9.16868 25.2482 9.21422 25.2504C9.25976 25.2525 9.30454 25.2382 9.3403 25.2099L14.873 21.7062C15.1796 21.5111 15.536 21.4087 15.8994 21.4113Z" fill="#C63A2F"/>
</svg>
