<svg width="25" height="25" viewBox="0 0 25 25" fill="none" xmlns="http://www.w3.org/2000/svg">
<path d="M12.4999 17.7085C12.743 17.7085 12.947 17.626 13.1119 17.4611C13.2768 17.2962 13.3593 17.0922 13.3593 16.8491C13.3593 16.6061 13.2768 16.4021 13.1119 16.2371C12.947 16.0722 12.743 15.9897 12.4999 15.9897C12.2569 15.9897 12.0529 16.0722 11.8879 16.2371C11.723 16.4021 11.6405 16.6061 11.6405 16.8491C11.6405 17.0922 11.723 17.2962 11.8879 17.4611C12.0529 17.626 12.2569 17.7085 12.4999 17.7085ZM11.7968 13.7241H13.3593V7.13558H11.7968V13.7241ZM12.4999 22.9168C11.0763 22.9168 9.73082 22.6434 8.46346 22.0965C7.1961 21.5496 6.08933 20.8031 5.14315 19.8569C4.19697 18.9108 3.45044 17.804 2.90356 16.5366C2.35669 15.2693 2.08325 13.9151 2.08325 12.4741C2.08325 11.0505 2.35669 9.70502 2.90356 8.43766C3.45044 7.1703 4.19697 6.06787 5.14315 5.13037C6.08933 4.19287 7.1961 3.45068 8.46346 2.90381C9.73082 2.35693 11.085 2.0835 12.526 2.0835C13.9496 2.0835 15.2951 2.35693 16.5624 2.90381C17.8298 3.45068 18.9322 4.19287 19.8697 5.13037C20.8072 6.06787 21.5494 7.1703 22.0963 8.43766C22.6431 9.70502 22.9166 11.0592 22.9166 12.5002C22.9166 13.9238 22.6431 15.2693 22.0963 16.5366C21.5494 17.804 20.8072 18.9108 19.8697 19.8569C18.9322 20.8031 17.8298 21.5496 16.5624 22.0965C15.2951 22.6434 13.9409 22.9168 12.4999 22.9168ZM12.526 21.3543C14.9739 21.3543 17.0572 20.4906 18.776 18.7632C20.4947 17.0358 21.3541 14.9394 21.3541 12.4741C21.3541 10.0262 20.4947 7.94287 18.776 6.22412C17.0572 4.50537 14.9652 3.646 12.4999 3.646C10.052 3.646 7.96433 4.50537 6.2369 6.22412C4.50947 7.94287 3.64575 10.0349 3.64575 12.5002C3.64575 14.9481 4.50947 17.0358 6.2369 18.7632C7.96433 20.4906 10.0607 21.3543 12.526 21.3543Z" fill="#C10016"/>
</svg>
