<svg width="12" height="15" viewBox="0 0 12 15" fill="none" xmlns="http://www.w3.org/2000/svg">
<path d="M5.90214 0.601196C3.6451 0.601196 1.79541 2.44537 1.79541 4.6962C1.79541 5.56831 2.07397 6.37887 2.54536 7.04503L5.40093 11.9816C5.80082 12.5041 6.06668 12.4049 6.39921 11.954L9.54894 6.59406C9.61243 6.47894 9.6624 6.35637 9.70589 6.23117C9.90576 5.7441 10.0085 5.22268 10.0085 4.6962C10.0086 2.44537 8.15946 0.601196 5.90214 0.601196ZM5.90214 2.51991C7.1177 2.51991 8.08423 3.48423 8.08423 4.6962C8.08423 5.90816 7.1177 6.87207 5.90214 6.87207C4.68673 6.87207 3.71978 5.9083 3.71978 4.6962C3.71978 3.48423 4.68673 2.52005 5.90214 2.52005V2.51991Z" fill="#D26C64"/>
<path d="M8.51253 7.35229L8.50591 7.36969C8.50798 7.36444 8.50963 7.35906 8.51171 7.35381L8.51253 7.35229ZM3.69408 10.1336C1.74417 10.4091 0.380371 11.0682 0.380371 12.0385C0.380371 13.3454 2.65908 14.4049 5.90184 14.4049C9.1446 14.4049 11.4233 13.3454 11.4233 12.0385C11.4233 11.0682 10.0597 10.4091 8.10988 10.1336L7.83974 10.5935C9.30928 10.7974 10.319 11.2259 10.319 11.7231C10.319 12.4202 8.34137 12.9852 5.90184 12.9852C3.46232 12.9852 1.48467 12.4202 1.48467 11.7231C1.48453 11.2275 2.48764 10.7995 3.96174 10.5948C3.8727 10.441 3.78312 10.2875 3.69394 10.1336H3.69408Z" fill="#D26C64"/>
</svg>
