<svg width="36" height="38" viewBox="0 0 36 38" fill="none" xmlns="http://www.w3.org/2000/svg">
<g clip-path="url(#clip0_1129_3765)">
<path d="M26.0879 24.8275C30.432 22.4247 33.7252 20.5937 34.009 20.4514C34.917 19.965 35.8548 18.6775 34.009 17.6774C33.4131 17.3629 30.2045 15.589 26.0879 13.3013L20.3811 19.1071L26.0879 24.8274V24.8275Z" fill="#FFD900"/>
<path d="M20.3812 19.1074L2.21014 37.5561C2.63666 37.613 3.11818 37.499 3.68589 37.1846C4.87778 36.5274 17.5129 29.5764 26.088 24.8292L20.3812 19.1074Z" fill="#F43249"/>
<path d="M20.381 19.1072L26.0878 13.33C26.0878 13.33 4.96382 1.71676 3.68574 1.03122C3.20422 0.743932 2.66462 0.658593 2.18176 0.743932L20.381 19.1072Z" fill="#00EE76"/>
<path d="M20.3811 19.1074L2.18182 0.744141C1.44321 0.916166 0.819031 1.57353 0.819031 2.91792V35.3823C0.819031 36.6128 1.30202 37.4991 2.21006 37.5845L20.3811 19.1074Z" fill="#00D3FF"/>
</g>
<defs>
<clipPath id="clip0_1129_3765">
<rect width="34.2605" height="36.9396" fill="white" transform="translate(0.819031 0.712402)"/>
</clipPath>
</defs>
</svg>
