<svg width="175" height="61" viewBox="0 0 175 61" fill="none" xmlns="http://www.w3.org/2000/svg">
<rect width="174.909" height="60.3647" rx="9.00966" fill="#C10016" fill-opacity="0.5"/>
<path d="M58.1387 22.3066H56.7591L51.1492 13.663H51.0929C51.107 13.8929 51.1234 14.1557 51.1421 14.4513C51.1609 14.7423 51.175 15.0543 51.1844 15.3875C51.1985 15.716 51.2055 16.0515 51.2055 16.3941V22.3066H50.0934V12.0159H51.4659L57.0547 20.6314H57.104C57.0946 20.4672 57.0829 20.2349 57.0688 19.9346C57.0547 19.6296 57.0407 19.3034 57.0266 18.9562C57.0172 18.6042 57.0125 18.2781 57.0125 17.9778V12.0159H58.1387V22.3066ZM63.6571 14.4654C64.5769 14.4654 65.2596 14.6719 65.7054 15.0848C66.1512 15.4978 66.3741 16.1571 66.3741 17.0627V22.3066H65.5224L65.2972 21.1664H65.2409C65.025 21.4479 64.7998 21.6849 64.5651 21.8773C64.3305 22.065 64.0583 22.2081 63.7486 22.3066C63.4436 22.4005 63.0682 22.4474 62.6224 22.4474C62.1532 22.4474 61.7355 22.3653 61.3695 22.2011C61.0082 22.0368 60.722 21.7881 60.5108 21.4549C60.3043 21.1218 60.2011 20.6994 60.2011 20.188C60.2011 19.4184 60.5061 18.8271 61.1161 18.4142C61.7262 18.0012 62.6553 17.776 63.9035 17.7385L65.2338 17.6822V17.2106C65.2338 16.5442 65.0907 16.0773 64.8045 15.8098C64.5182 15.5424 64.1147 15.4086 63.5938 15.4086C63.1902 15.4086 62.8054 15.4673 62.4394 15.5846C62.0734 15.7019 61.7262 15.8403 61.3977 15.9999L61.0387 15.113C61.3859 14.9347 61.7848 14.7822 62.2353 14.6555C62.6858 14.5288 63.1597 14.4654 63.6571 14.4654ZM65.2197 18.5057L64.0443 18.555C63.0823 18.5925 62.4042 18.7497 62.0101 19.0266C61.6159 19.3034 61.4188 19.6952 61.4188 20.202C61.4188 20.6431 61.5525 20.9693 61.82 21.1804C62.0875 21.3916 62.4418 21.4972 62.8829 21.4972C63.568 21.4972 64.1287 21.3071 64.5651 20.927C65.0015 20.5469 65.2197 19.9768 65.2197 19.2166V18.5057ZM69.9498 11.3543V14.0924C69.9498 14.4068 69.9404 14.7118 69.9217 15.0074C69.9076 15.303 69.8959 15.533 69.8865 15.6972H69.9498C70.161 15.35 70.466 15.0567 70.8649 14.8174C71.2637 14.578 71.7729 14.4584 72.3923 14.4584C73.3589 14.4584 74.1285 14.7939 74.701 15.4649C75.2782 16.1313 75.5668 17.1237 75.5668 18.4423C75.5668 19.3105 75.4354 20.0425 75.1726 20.6384C74.9098 21.2344 74.5391 21.6849 74.0605 21.9899C73.5818 22.2949 73.0164 22.4474 72.3641 22.4474C71.7541 22.4474 71.252 22.3348 70.8578 22.1096C70.4683 21.8796 70.168 21.6004 69.9569 21.2719H69.8654L69.626 22.3066H68.7814V11.3543H69.9498ZM72.2022 15.4368C71.6438 15.4368 71.2004 15.547 70.8719 15.7676C70.5434 15.9835 70.3064 16.3119 70.161 16.753C70.0202 17.1894 69.9498 17.7432 69.9498 18.4142V18.4775C69.9498 19.4489 70.1117 20.1927 70.4355 20.7088C70.7593 21.2203 71.3482 21.4761 72.2022 21.4761C72.9202 21.4761 73.4575 21.2133 73.8141 20.6877C74.1754 20.1622 74.3561 19.4113 74.3561 18.4353C74.3561 17.4405 74.1778 16.692 73.8212 16.1899C73.4692 15.6878 72.9296 15.4368 72.2022 15.4368ZM80.4939 14.4654C81.4137 14.4654 82.0964 14.6719 82.5422 15.0848C82.988 15.4978 83.2109 16.1571 83.2109 17.0627V22.3066H82.3592L82.134 21.1664H82.0777C81.8618 21.4479 81.6366 21.6849 81.4019 21.8773C81.1673 22.065 80.8951 22.2081 80.5854 22.3066C80.2804 22.4005 79.905 22.4474 79.4592 22.4474C78.99 22.4474 78.5723 22.3653 78.2063 22.2011C77.845 22.0368 77.5588 21.7881 77.3476 21.4549C77.1411 21.1218 77.0379 20.6994 77.0379 20.188C77.0379 19.4184 77.3429 18.8271 77.9529 18.4142C78.563 18.0012 79.4921 17.776 80.7403 17.7385L82.0706 17.6822V17.2106C82.0706 16.5442 81.9275 16.0773 81.6413 15.8098C81.355 15.5424 80.9515 15.4086 80.4306 15.4086C80.027 15.4086 79.6422 15.4673 79.2762 15.5846C78.9102 15.7019 78.563 15.8403 78.2345 15.9999L77.8755 15.113C78.2228 14.9347 78.6216 14.7822 79.0721 14.6555C79.5226 14.5288 79.9965 14.4654 80.4939 14.4654ZM82.0565 18.5057L80.8811 18.555C79.9191 18.5925 79.241 18.7497 78.8469 19.0266C78.4527 19.3034 78.2556 19.6952 78.2556 20.202C78.2556 20.6431 78.3893 20.9693 78.6568 21.1804C78.9243 21.3916 79.2786 21.4972 79.7197 21.4972C80.4048 21.4972 80.9655 21.3071 81.4019 20.927C81.8383 20.5469 82.0565 19.9768 82.0565 19.2166V18.5057ZM87.3145 22.3066L84.3864 14.5921H85.6393L87.3356 19.2588C87.453 19.5779 87.5726 19.9299 87.6946 20.3147C87.8166 20.6994 87.9011 21.0092 87.948 21.2438H87.9973C88.0536 21.0092 88.1475 20.6994 88.2788 20.3147C88.4102 19.9252 88.5299 19.5732 88.6378 19.2588L90.3342 14.5921H91.5871L88.6519 22.3066H87.3145ZM93.9944 14.5921V22.3066H92.8259V14.5921H93.9944ZM93.4242 11.7062C93.6166 11.7062 93.7808 11.7696 93.9169 11.8963C94.0577 12.0183 94.1281 12.2107 94.1281 12.4734C94.1281 12.7315 94.0577 12.9239 93.9169 13.0506C93.7808 13.1773 93.6166 13.2407 93.4242 13.2407C93.2224 13.2407 93.0535 13.1773 92.9174 13.0506C92.786 12.9239 92.7203 12.7315 92.7203 12.4734C92.7203 12.2107 92.786 12.0183 92.9174 11.8963C93.0535 11.7696 93.2224 11.7062 93.4242 11.7062ZM98.9637 21.4901C99.1561 21.4901 99.3532 21.4737 99.555 21.4409C99.7568 21.408 99.921 21.3681 100.048 21.3212V22.2292C99.9116 22.2902 99.7216 22.3418 99.4776 22.3841C99.2383 22.4263 99.0036 22.4474 98.7737 22.4474C98.3654 22.4474 97.9947 22.377 97.6616 22.2363C97.3284 22.0908 97.0609 21.8468 96.8591 21.5042C96.6621 21.1617 96.5635 20.6877 96.5635 20.0824V15.5072H95.4655V14.937L96.5706 14.4795L97.0351 12.8043H97.739V14.5921H99.9984V15.5072H97.739V20.0472C97.739 20.5305 97.8493 20.8918 98.0698 21.1312C98.2951 21.3705 98.593 21.4901 98.9637 21.4901ZM104.581 14.4513C105.238 14.4513 105.801 14.5968 106.27 14.8877C106.739 15.1787 107.098 15.5869 107.347 16.1125C107.596 16.6334 107.72 17.2434 107.72 17.9426V18.6676H102.392C102.406 19.5732 102.631 20.263 103.067 20.737C103.504 21.2109 104.118 21.4479 104.912 21.4479C105.4 21.4479 105.831 21.4033 106.207 21.3142C106.582 21.225 106.972 21.0936 107.375 20.92V21.9477C106.986 22.1213 106.598 22.248 106.214 22.3278C105.834 22.4075 105.383 22.4474 104.862 22.4474C104.121 22.4474 103.473 22.2973 102.92 21.9969C102.371 21.6919 101.943 21.2461 101.638 20.6596C101.333 20.073 101.181 19.355 101.181 18.5057C101.181 17.6751 101.319 16.9572 101.596 16.3518C101.878 15.7418 102.272 15.2725 102.779 14.9441C103.29 14.6156 103.891 14.4513 104.581 14.4513ZM104.567 15.4086C103.943 15.4086 103.445 15.6127 103.074 16.021C102.704 16.4292 102.483 16.9994 102.413 17.7314H106.495C106.491 17.2716 106.418 16.868 106.277 16.5207C106.141 16.1688 105.932 15.8966 105.651 15.7042C105.369 15.5072 105.008 15.4086 104.567 15.4086ZM117.103 14.4513C118.018 14.4513 118.71 14.6766 119.179 15.1271C119.648 15.5729 119.883 16.2908 119.883 17.2809V22.3066H118.729V17.3584C118.729 16.7155 118.581 16.2345 118.285 15.9154C117.994 15.5963 117.546 15.4368 116.941 15.4368C116.087 15.4368 115.486 15.6784 115.139 16.1618C114.792 16.6451 114.618 17.3466 114.618 18.2664V22.3066H113.45V14.5921H114.393L114.569 15.7042H114.632C114.796 15.4321 115.005 15.2045 115.259 15.0215C115.512 14.8338 115.796 14.693 116.11 14.5992C116.425 14.5006 116.755 14.4513 117.103 14.4513ZM125.176 14.4654C126.096 14.4654 126.779 14.6719 127.225 15.0848C127.67 15.4978 127.893 16.1571 127.893 17.0627V22.3066H127.042L126.816 21.1664H126.76C126.544 21.4479 126.319 21.6849 126.084 21.8773C125.85 22.065 125.577 22.2081 125.268 22.3066C124.963 22.4005 124.587 22.4474 124.142 22.4474C123.672 22.4474 123.255 22.3653 122.889 22.2011C122.527 22.0368 122.241 21.7881 122.03 21.4549C121.823 21.1218 121.72 20.6994 121.72 20.188C121.72 19.4184 122.025 18.8271 122.635 18.4142C123.245 18.0012 124.174 17.776 125.423 17.7385L126.753 17.6822V17.2106C126.753 16.5442 126.61 16.0773 126.324 15.8098C126.037 15.5424 125.634 15.4086 125.113 15.4086C124.709 15.4086 124.325 15.4673 123.959 15.5846C123.593 15.7019 123.245 15.8403 122.917 15.9999L122.558 15.113C122.905 14.9347 123.304 14.7822 123.754 14.6555C124.205 14.5288 124.679 14.4654 125.176 14.4654ZM126.739 18.5057L125.563 18.555C124.601 18.5925 123.923 18.7497 123.529 19.0266C123.135 19.3034 122.938 19.6952 122.938 20.202C122.938 20.6431 123.072 20.9693 123.339 21.1804C123.607 21.3916 123.961 21.4972 124.402 21.4972C125.087 21.4972 125.648 21.3071 126.084 20.927C126.521 20.5469 126.739 19.9768 126.739 19.2166V18.5057Z" fill="white"/>
<path d="M56.4577 39.2461H61.7897V46.4141C61.041 46.6615 60.2663 46.8535 59.4655 46.9902C58.6647 47.127 57.7663 47.1953 56.7702 47.1953C55.3184 47.1953 54.0879 46.9089 53.0788 46.3359C52.0762 45.7565 51.3145 44.9199 50.7936 43.8262C50.2728 42.7259 50.0124 41.401 50.0124 39.8516C50.0124 38.3607 50.3021 37.0684 50.8815 35.9746C51.461 34.8743 52.3041 34.0247 53.4108 33.4258C54.5176 32.8203 55.8587 32.5176 57.4343 32.5176C58.209 32.5176 58.9577 32.5957 59.6804 32.752C60.4095 32.9017 61.0768 33.11 61.6823 33.377L60.862 35.3105C60.3802 35.0827 59.8399 34.8906 59.2409 34.7344C58.6419 34.5781 58.0202 34.5 57.3757 34.5C56.3535 34.5 55.4714 34.7214 54.7292 35.1641C53.9935 35.6068 53.4271 36.2318 53.03 37.0391C52.6328 37.8398 52.4343 38.7871 52.4343 39.8809C52.4343 40.9421 52.5938 41.873 52.9128 42.6738C53.2318 43.4746 53.7298 44.0996 54.4069 44.5488C55.0905 44.9915 55.9727 45.2129 57.0534 45.2129C57.5938 45.2129 58.0528 45.1836 58.4304 45.125C58.808 45.0664 59.1563 45.0013 59.4753 44.9297V41.248H56.4577V39.2461ZM74.5436 41.5703C74.5436 42.4688 74.4265 43.2663 74.1921 43.9629C73.9577 44.6595 73.6159 45.2487 73.1667 45.7305C72.7175 46.2057 72.1771 46.5703 71.5456 46.8242C70.9141 47.0716 70.2012 47.1953 69.4069 47.1953C68.6647 47.1953 67.9844 47.0716 67.3659 46.8242C66.7474 46.5703 66.2103 46.2057 65.7546 45.7305C65.3054 45.2487 64.9571 44.6595 64.7097 43.9629C64.4623 43.2663 64.3386 42.4688 64.3386 41.5703C64.3386 40.3789 64.5436 39.3698 64.9538 38.543C65.3705 37.7096 65.9629 37.0749 66.7311 36.6387C67.4994 36.2025 68.4141 35.9844 69.4753 35.9844C70.4714 35.9844 71.3503 36.2025 72.112 36.6387C72.8737 37.0749 73.4694 37.7096 73.8991 38.543C74.3288 39.3763 74.5436 40.3854 74.5436 41.5703ZM66.7018 41.5703C66.7018 42.3581 66.7962 43.0319 66.985 43.5918C67.1804 44.1517 67.4798 44.5814 67.8835 44.8809C68.2871 45.1738 68.808 45.3203 69.446 45.3203C70.084 45.3203 70.6048 45.1738 71.0085 44.8809C71.4121 44.5814 71.7084 44.1517 71.8972 43.5918C72.086 43.0319 72.1804 42.3581 72.1804 41.5703C72.1804 40.7826 72.086 40.1152 71.8972 39.5684C71.7084 39.015 71.4121 38.5951 71.0085 38.3086C70.6048 38.0156 70.0807 37.8691 69.4362 37.8691C68.4857 37.8691 67.7923 38.1882 67.3561 38.8262C66.9199 39.4642 66.7018 40.3789 66.7018 41.5703ZM86.7507 41.5703C86.7507 42.4688 86.6335 43.2663 86.3991 43.9629C86.1647 44.6595 85.8229 45.2487 85.3737 45.7305C84.9245 46.2057 84.3841 46.5703 83.7526 46.8242C83.1211 47.0716 82.4082 47.1953 81.614 47.1953C80.8718 47.1953 80.1914 47.0716 79.5729 46.8242C78.9544 46.5703 78.4173 46.2057 77.9616 45.7305C77.5124 45.2487 77.1641 44.6595 76.9167 43.9629C76.6693 43.2663 76.5456 42.4688 76.5456 41.5703C76.5456 40.3789 76.7507 39.3698 77.1608 38.543C77.5775 37.7096 78.1699 37.0749 78.9382 36.6387C79.7064 36.2025 80.6211 35.9844 81.6823 35.9844C82.6784 35.9844 83.5573 36.2025 84.319 36.6387C85.0807 37.0749 85.6765 37.7096 86.1061 38.543C86.5358 39.3763 86.7507 40.3854 86.7507 41.5703ZM78.9089 41.5703C78.9089 42.3581 79.0033 43.0319 79.1921 43.5918C79.3874 44.1517 79.6869 44.5814 80.0905 44.8809C80.4942 45.1738 81.015 45.3203 81.653 45.3203C82.291 45.3203 82.8119 45.1738 83.2155 44.8809C83.6192 44.5814 83.9154 44.1517 84.1042 43.5918C84.293 43.0319 84.3874 42.3581 84.3874 41.5703C84.3874 40.7826 84.293 40.1152 84.1042 39.5684C83.9154 39.015 83.6192 38.5951 83.2155 38.3086C82.8119 38.0156 82.2878 37.8691 81.6432 37.8691C80.6927 37.8691 79.9994 38.1882 79.5632 38.8262C79.127 39.4642 78.9089 40.3789 78.9089 41.5703ZM92.4733 51.8047C91.0085 51.8047 89.8854 51.541 89.1042 51.0137C88.3229 50.4863 87.9323 49.7474 87.9323 48.7969C87.9323 48.1328 88.1406 47.5697 88.5573 47.1074C88.974 46.6517 89.5697 46.3359 90.3444 46.1602C90.0515 46.0299 89.7975 45.8281 89.5827 45.5547C89.3744 45.2747 89.2702 44.9655 89.2702 44.627C89.2702 44.2233 89.3841 43.8783 89.612 43.5918C89.8399 43.3053 90.1817 43.0286 90.6374 42.7617C90.071 42.5208 89.6153 42.1302 89.2702 41.5898C88.9317 41.043 88.7624 40.4017 88.7624 39.666C88.7624 38.8848 88.9284 38.2207 89.2604 37.6738C89.5925 37.1204 90.0775 36.7005 90.7155 36.4141C91.3535 36.1211 92.125 35.9746 93.03 35.9746C93.2253 35.9746 93.4369 35.9876 93.6647 36.0137C93.8991 36.0332 94.114 36.0592 94.3093 36.0918C94.5111 36.1178 94.6641 36.1471 94.7682 36.1797H98.5085V37.459L96.6725 37.8008C96.8483 38.0482 96.9883 38.3314 97.0925 38.6504C97.1966 38.9629 97.2487 39.3047 97.2487 39.6758C97.2487 40.7956 96.8613 41.6777 96.0866 42.3223C95.3184 42.9603 94.2572 43.2793 92.903 43.2793C92.5775 43.2663 92.2617 43.2402 91.9557 43.2012C91.7214 43.3444 91.5423 43.5039 91.4186 43.6797C91.2949 43.849 91.2331 44.041 91.2331 44.2559C91.2331 44.4316 91.2949 44.5749 91.4186 44.6855C91.5423 44.7897 91.7246 44.8678 91.9655 44.9199C92.2129 44.972 92.5124 44.998 92.864 44.998H94.7292C95.9141 44.998 96.819 45.2487 97.444 45.75C98.069 46.2513 98.3815 46.987 98.3815 47.957C98.3815 49.1875 97.8737 50.1348 96.8581 50.7988C95.8425 51.4694 94.3809 51.8047 92.4733 51.8047ZM92.5612 50.1934C93.362 50.1934 94.0358 50.1152 94.5827 49.959C95.1296 49.8027 95.543 49.5781 95.8229 49.2852C96.1029 48.9987 96.2429 48.6569 96.2429 48.2598C96.2429 47.9082 96.155 47.638 95.9792 47.4492C95.8034 47.2604 95.5397 47.1302 95.1882 47.0586C94.8366 46.987 94.4004 46.9512 93.8796 46.9512H92.1804C91.7572 46.9512 91.3828 47.0163 91.0573 47.1465C90.7318 47.2832 90.4779 47.4785 90.2956 47.7324C90.1198 47.9863 90.0319 48.2923 90.0319 48.6504C90.0319 49.1452 90.25 49.526 90.6862 49.793C91.1289 50.0599 91.7539 50.1934 92.5612 50.1934ZM93.0104 41.7754C93.681 41.7754 94.1791 41.5931 94.5046 41.2285C94.8301 40.8574 94.9929 40.3366 94.9929 39.666C94.9929 38.9368 94.8236 38.39 94.485 38.0254C94.153 37.6608 93.6582 37.4785 93.0007 37.4785C92.3561 37.4785 91.8646 37.6641 91.5261 38.0352C91.194 38.4062 91.028 38.9564 91.028 39.6855C91.028 40.3431 91.194 40.8574 91.5261 41.2285C91.8646 41.5931 92.3594 41.7754 93.0104 41.7754ZM102.786 47H100.481V31.8047H102.786V47ZM110.374 35.9844C111.337 35.9844 112.164 36.1829 112.854 36.5801C113.544 36.9772 114.075 37.5404 114.446 38.2695C114.817 38.9987 115.003 39.8711 115.003 40.8867V42.1172H107.786C107.812 43.1654 108.092 43.9727 108.626 44.5391C109.166 45.1055 109.921 45.3887 110.891 45.3887C111.581 45.3887 112.2 45.3236 112.747 45.1934C113.3 45.0566 113.87 44.8581 114.456 44.5977V46.4629C113.915 46.7168 113.365 46.9023 112.805 47.0195C112.245 47.1367 111.575 47.1953 110.794 47.1953C109.732 47.1953 108.798 46.9902 107.991 46.5801C107.19 46.1634 106.562 45.5449 106.106 44.7246C105.657 43.9043 105.432 42.8854 105.432 41.668C105.432 40.457 105.637 39.4284 106.048 38.582C106.458 37.7357 107.034 37.0911 107.776 36.6484C108.518 36.2057 109.384 35.9844 110.374 35.9844ZM110.374 37.7129C109.651 37.7129 109.065 37.9473 108.616 38.416C108.173 38.8848 107.913 39.5716 107.835 40.4766H112.757C112.75 39.9362 112.659 39.4577 112.483 39.041C112.314 38.6243 112.053 38.2988 111.702 38.0645C111.357 37.8301 110.914 37.7129 110.374 37.7129ZM127.171 32.7227C129.013 32.7227 130.357 33.1003 131.204 33.8555C132.05 34.6107 132.473 35.6686 132.473 37.0293C132.473 37.6478 132.376 38.237 132.18 38.7969C131.992 39.3503 131.679 39.8418 131.243 40.2715C130.807 40.6947 130.23 41.0299 129.514 41.2773C128.805 41.5247 127.929 41.6484 126.887 41.6484H125.364V47H123.02V32.7227H127.171ZM127.014 34.666H125.364V39.6953H126.643C127.379 39.6953 128.004 39.6107 128.518 39.4414C129.033 39.2656 129.423 38.9889 129.69 38.6113C129.957 38.2337 130.091 37.7357 130.091 37.1172C130.091 36.2904 129.84 35.6751 129.339 35.2715C128.844 34.8678 128.069 34.666 127.014 34.666ZM137.395 47H135.091V31.8047H137.395V47ZM144.915 35.9844C146.282 35.9844 147.314 36.2871 148.01 36.8926C148.714 37.498 149.065 38.4421 149.065 39.7246V47H147.434L146.995 45.4668H146.917C146.611 45.8574 146.295 46.1797 145.969 46.4336C145.644 46.6875 145.266 46.8763 144.837 47C144.413 47.1302 143.896 47.1953 143.284 47.1953C142.639 47.1953 142.063 47.0781 141.555 46.8438C141.048 46.6029 140.647 46.2383 140.354 45.75C140.061 45.2617 139.915 44.6432 139.915 43.8945C139.915 42.7812 140.328 41.9447 141.155 41.3848C141.988 40.8249 143.245 40.5156 144.924 40.457L146.799 40.3887V39.8223C146.799 39.0736 146.624 38.5397 146.272 38.2207C145.927 37.9017 145.439 37.7422 144.807 37.7422C144.267 37.7422 143.743 37.8203 143.235 37.9766C142.727 38.1328 142.232 38.3249 141.751 38.5527L141.008 36.9316C141.536 36.6517 142.135 36.4238 142.805 36.248C143.482 36.0723 144.186 35.9844 144.915 35.9844ZM146.79 41.834L145.393 41.8828C144.247 41.9219 143.443 42.1172 142.981 42.4688C142.519 42.8203 142.288 43.3021 142.288 43.9141C142.288 44.4479 142.447 44.8385 142.766 45.0859C143.085 45.3268 143.505 45.4473 144.026 45.4473C144.82 45.4473 145.478 45.2227 145.999 44.7734C146.526 44.3177 146.79 43.6504 146.79 42.7715V41.834ZM150.647 36.1895H153.147L155.364 42.3613C155.462 42.6413 155.549 42.918 155.628 43.1914C155.712 43.4583 155.784 43.722 155.842 43.9824C155.908 44.2428 155.96 44.5033 155.999 44.7637H156.057C156.122 44.4251 156.214 44.0475 156.331 43.6309C156.454 43.2077 156.591 42.7845 156.741 42.3613L158.87 36.1895H161.341L156.702 48.4844C156.435 49.1875 156.106 49.7865 155.716 50.2812C155.331 50.7826 154.876 51.1602 154.348 51.4141C153.821 51.6745 153.219 51.8047 152.542 51.8047C152.216 51.8047 151.933 51.7852 151.692 51.7461C151.451 51.7135 151.246 51.6777 151.077 51.6387V49.8027C151.214 49.8353 151.386 49.8646 151.594 49.8906C151.803 49.9167 152.018 49.9297 152.239 49.9297C152.649 49.9297 153.004 49.8483 153.303 49.6855C153.603 49.5228 153.857 49.2917 154.065 48.9922C154.273 48.6992 154.446 48.3639 154.583 47.9863L154.964 46.9707L150.647 36.1895Z" fill="white"/>
<g clip-path="url(#clip0_1129_3761)">
<path d="M36.0879 35.8275C40.432 33.4247 43.7252 31.5937 44.009 31.4514C44.917 30.965 45.8548 29.6775 44.009 28.6774C43.4131 28.3629 40.2045 26.589 36.0879 24.3013L30.3811 30.1071L36.0879 35.8274V35.8275Z" fill="#FFD900"/>
<path d="M30.3812 30.1074L12.2101 48.5561C12.6367 48.613 13.1182 48.499 13.6859 48.1846C14.8778 47.5274 27.5129 40.5764 36.088 35.8292L30.3812 30.1074Z" fill="#F43249"/>
<path d="M30.381 30.1072L36.0878 24.33C36.0878 24.33 14.9638 12.7168 13.6857 12.0312C13.2042 11.7439 12.6646 11.6586 12.1818 11.7439L30.381 30.1072Z" fill="#00EE76"/>
<path d="M30.3811 30.1074L12.1818 11.7441C11.4432 11.9162 10.819 12.5735 10.819 13.9179V46.3823C10.819 47.6128 11.302 48.4991 12.2101 48.5845L30.3811 30.1074Z" fill="#00D3FF"/>
</g>
<defs>
<clipPath id="clip0_1129_3761">
<rect width="34.2605" height="36.9396" fill="white" transform="translate(10.819 11.7124)"/>
</clipPath>
</defs>
</svg>
