<svg width="70" height="71" viewBox="0 0 70 71" fill="none" xmlns="http://www.w3.org/2000/svg">
<path d="M30.138 22.6299C22.3605 22.6299 16.054 28.9386 16.054 36.7188C16.054 44.499 22.3605 50.8077 30.138 50.8077C37.9156 50.8077 44.2221 44.499 44.2221 36.7188C44.2221 35.7521 44.1165 34.809 43.9326 33.901L43.8544 33.5879H30.138V38.2842H39.5274C38.7802 42.7262 34.7897 46.1114 30.138 46.1114C24.9504 46.1114 20.7486 41.9082 20.7486 36.7188C20.7486 31.5294 24.9504 27.3262 30.138 27.3262C32.4854 27.3262 34.6254 28.195 36.2724 29.6196L39.637 26.3243C37.1331 24.0309 33.7999 22.6299 30.138 22.6299ZM52.0466 28.8916V33.5879H47.3519V36.7188H52.0466V41.4151H55.1764V36.7188H59.8711V33.5879H55.1764V28.8916H52.0466Z" fill="#C10016"/>
<circle cx="35.1538" cy="35.7889" r="31.3421" stroke="#C10016" stroke-width="7"/>
</svg>
