<svg width="71" height="71" viewBox="0 0 71 71" fill="none" xmlns="http://www.w3.org/2000/svg">
<circle cx="35.1785" cy="35.5223" r="31.3421" stroke="#C10016" stroke-width="7"/>
<path d="M21.4118 21.1577C20.9646 21.1577 20.5457 21.2419 20.1438 21.3653L24.3667 24.0307H47.4398L51.6627 21.3653C51.2608 21.2419 50.8419 21.1577 50.3947 21.1577H21.4118ZM18.6776 22.1453C17.6983 22.9365 17.0643 24.1261 17.0643 25.4671V44.1413C17.0643 46.5148 19.0173 48.4507 21.4118 48.4507H50.3947C52.7892 48.4507 54.7421 46.5148 54.7421 44.1413V25.4671C54.7421 24.1261 54.1081 22.9365 53.1288 22.1453L35.9032 33.0086L18.6776 22.1453ZM21.4118 28.9349L35.9032 38.0812L50.3947 28.9349V45.5778H21.4118V28.9349Z" fill="#C10016"/>
</svg>
