<svg width="20" height="20" viewBox="0 0 20 20" fill="none" xmlns="http://www.w3.org/2000/svg">
<path d="M3.83272 16.2619H4.60807L13.743 7.10343L12.9677 6.32808L3.83272 15.4866V16.2619ZM16.5773 6.21937L13.8635 3.5056L14.4912 2.86612C14.8137 2.54365 15.2015 2.38045 15.6547 2.37654C16.1079 2.37261 16.4958 2.52795 16.8182 2.84256L17.4287 3.45306C17.7119 3.72842 17.8437 4.05541 17.8241 4.43404C17.8045 4.81266 17.6648 5.13181 17.4052 5.39148L16.5773 6.21937ZM15.7141 7.0826L5.15518 17.6415H2.44141V14.9277L12.9885 4.3806L15.7141 7.0826ZM13.3671 6.71575L12.9677 6.32808L13.743 7.10343L13.3671 6.71575Z" fill="#333333"/>
</svg>
