<svg width="31" height="31" viewBox="0 0 31 31" fill="none" xmlns="http://www.w3.org/2000/svg">
<path d="M15.6198 22.4966L21.5654 26.2716C22.3322 26.7553 23.276 26.0356 23.0518 25.1509L21.3295 18.3795C21.2829 18.1918 21.2903 17.9948 21.3508 17.8111C21.4114 17.6274 21.5225 17.4646 21.6716 17.3414L27.0038 12.8939C27.6998 12.3159 27.3459 11.148 26.4375 11.089L19.4774 10.6407C19.2875 10.6297 19.1049 10.5635 18.9519 10.4504C18.799 10.3373 18.6823 10.1821 18.6162 10.0037L16.0209 3.46823C15.9522 3.27936 15.827 3.11621 15.6624 3.00092C15.4978 2.88564 15.3017 2.82379 15.1007 2.82379C14.8998 2.82379 14.7036 2.88564 14.539 3.00092C14.3744 3.11621 14.2493 3.27936 14.1806 3.46823L11.5853 10.0037C11.5191 10.1821 11.4024 10.3373 11.2495 10.4504C11.0966 10.5635 10.914 10.6297 10.7241 10.6407L3.76392 11.089C2.85556 11.148 2.50166 12.3159 3.19767 12.8939L8.52986 17.3414C8.6789 17.4646 8.79008 17.6274 8.85061 17.8111C8.91114 17.9948 8.91854 18.1918 8.87197 18.3795L7.27939 24.6554C7.00807 25.7171 8.14056 26.5783 9.04892 26.0003L14.5817 22.4966C14.7368 22.3979 14.9169 22.3455 15.1007 22.3455C15.2846 22.3455 15.4646 22.3979 15.6198 22.4966Z" fill="#C63A2F"/>
<path d="M22.0941 27.3687C21.7297 27.367 21.3734 27.2606 21.0678 27.062L15.1104 23.2988H15.0868L9.55405 26.8024C9.19664 27.0279 8.78007 27.1417 8.35766 27.129C7.93525 27.1164 7.5262 26.9781 7.18288 26.7317C6.83041 26.4725 6.56346 26.1139 6.41632 25.7019C6.26917 25.2899 6.24855 24.8433 6.3571 24.4195L7.94967 18.1553C7.95468 18.1389 7.95513 18.1215 7.95097 18.1049C7.94682 18.0882 7.93821 18.0731 7.92608 18.061L2.59389 13.6253C2.29004 13.3714 2.0692 13.0323 1.95986 12.6518C1.85053 12.2712 1.8577 11.8666 1.98046 11.4901C2.09857 11.1185 2.32623 10.7912 2.63358 10.5512C2.94093 10.3112 3.31362 10.1697 3.7028 10.1453L10.663 9.69698C10.6732 9.69574 10.683 9.69181 10.6913 9.6856C10.6996 9.67939 10.7061 9.67111 10.7101 9.66158L13.3055 3.11432C13.4455 2.75258 13.6918 2.44166 14.0118 2.22242C14.3318 2.00317 14.7107 1.88584 15.0986 1.88584C15.4865 1.88584 15.8653 2.00317 16.1854 2.22242C16.5054 2.44166 16.7516 2.75258 16.8917 3.11432L19.487 9.66158C19.4911 9.67111 19.4976 9.67939 19.5059 9.6856C19.5142 9.69181 19.5239 9.69574 19.5342 9.69698L26.4944 10.1453C26.8835 10.1697 27.2562 10.3112 27.5636 10.5512C27.8709 10.7912 28.0986 11.1185 28.2167 11.4901C28.3395 11.8666 28.3466 12.2712 28.2373 12.6518C28.128 13.0323 27.9071 13.3714 27.6033 13.6253L22.2711 18.061C22.2589 18.0731 22.2503 18.0882 22.2462 18.1049C22.242 18.1215 22.2425 18.1389 22.2475 18.1553L23.958 24.9149C24.0596 25.2973 24.0429 25.7015 23.9103 26.0742C23.7776 26.447 23.5351 26.7708 23.2148 27.003C22.887 27.2357 22.4961 27.3633 22.0941 27.3687ZM15.0986 21.4113C15.4619 21.4087 15.8183 21.5111 16.1249 21.7062L22.0705 25.4694H22.0941C22.1093 25.4615 22.1217 25.4492 22.1295 25.434C22.1413 25.4222 22.1413 25.4104 22.1295 25.3632L20.419 18.6036C20.3262 18.2432 20.3367 17.864 20.4494 17.5094C20.562 17.1547 20.7722 16.8389 21.056 16.5981L26.4 12.1625C26.4118 12.1507 26.4354 12.1271 26.4118 12.0681C26.3882 12.0092 26.3882 12.021 26.3764 12.021L19.4044 11.5727C19.0396 11.5464 18.6896 11.4171 18.3952 11.2C18.1008 10.9828 17.874 10.6866 17.7411 10.3458L15.134 3.81033C15.1222 3.77494 15.1104 3.77494 15.0986 3.77494C15.0868 3.77494 15.075 3.77494 15.0632 3.81033L12.4561 10.3576C12.3232 10.6984 12.0964 10.9946 11.802 11.2118C11.5076 11.4289 11.1576 11.5582 10.7927 11.5845L3.82077 12.0328C3.80897 12.0328 3.79717 12.0328 3.78538 12.0799C3.77358 12.1271 3.78538 12.1625 3.79717 12.1743L9.14116 16.6099C9.42491 16.8507 9.63515 17.1665 9.74781 17.5212C9.86047 17.8758 9.871 18.255 9.77819 18.6154L8.18561 24.8914C8.17137 24.9473 8.17384 25.0061 8.19271 25.0606C8.21158 25.1151 8.24603 25.1629 8.29178 25.1981C8.32469 25.2296 8.3679 25.2482 8.41344 25.2504C8.45898 25.2525 8.50376 25.2382 8.53952 25.2099L14.0723 21.7062C14.3788 21.5111 14.7352 21.4087 15.0986 21.4113Z" fill="#C63A2F"/>
</svg>
