<svg width="59" height="67" viewBox="0 0 59 67" fill="none" xmlns="http://www.w3.org/2000/svg">
<path d="M0 33.5C0 14.9985 14.9985 0 33.5 0H59V67H33.5C14.9985 67 0 52.0015 0 33.5Z" fill="#C63A2F"/>
<path d="M32.5 15.4375C28.9457 15.4417 25.5382 16.8555 23.025 19.3687C20.5117 21.882 19.098 25.2895 19.0938 28.8438C19.0895 31.7483 20.0383 34.574 21.7945 36.8875C21.7945 36.8875 22.1601 37.3689 22.2199 37.4384L32.5 49.5625L42.785 37.4323C42.8387 37.3677 43.2055 36.8875 43.2055 36.8875L43.2067 36.8838C44.9621 34.5714 45.9104 31.747 45.9063 28.8438C45.9021 25.2895 44.4883 21.882 41.975 19.3687C39.4618 16.8555 36.0543 15.4417 32.5 15.4375ZM37.631 29.6993L32.5037 34.9375L27.3691 29.6993C26.7526 29.0628 26.4078 28.2114 26.4078 27.3252C26.4078 26.439 26.7526 25.5876 27.3691 24.9511C27.6714 24.6403 28.0329 24.3933 28.4323 24.2247C28.8317 24.056 29.2609 23.9691 29.6945 23.9691C30.128 23.9691 30.5572 24.056 30.9566 24.2247C31.356 24.3933 31.7175 24.6403 32.0198 24.9511L32.5037 25.4447L32.9826 24.9511C33.285 24.6403 33.6465 24.3933 34.0459 24.2247C34.4453 24.056 34.8745 23.9691 35.308 23.9691C35.7416 23.9691 36.1707 24.056 36.5701 24.2247C36.9695 24.3933 37.3311 24.6403 37.6334 24.9511C38.2499 25.5876 38.5946 26.439 38.5946 27.3252C38.5946 28.2114 38.2499 29.0628 37.6334 29.6993H37.631Z" fill="white"/>
</svg>
