<svg width="12" height="13" viewBox="0 0 12 13" fill="none" xmlns="http://www.w3.org/2000/svg">
<path d="M6.00022 0C3.71108 0 1.83508 1.7368 1.83508 3.85658C1.83508 4.67792 2.1176 5.44128 2.5957 6.06866L5.49188 10.7179C5.89746 11.2099 6.1671 11.1164 6.50436 10.6919L9.69888 5.64395C9.76328 5.53553 9.81396 5.42009 9.85806 5.30218C10.0608 4.84347 10.165 4.35241 10.1649 3.85658C10.1651 1.7368 8.28964 0 6.00022 0ZM6.00022 1.807C7.23306 1.807 8.21334 2.71518 8.21334 3.85658C8.21334 4.99798 7.23306 5.90577 6.00022 5.90577C4.76752 5.90577 3.78682 4.99811 3.78682 3.85658C3.78682 2.71518 4.76752 1.80713 6.00022 1.80713V1.807Z" fill="white"/>
<path d="M8.64781 6.35791L8.64109 6.37429C8.64319 6.36935 8.64487 6.36428 8.64697 6.35934L8.64781 6.35791ZM3.76083 8.97728C1.78319 9.23676 0.399994 9.85751 0.399994 10.7713C0.399994 12.0021 2.71111 12.9999 5.99999 12.9999C9.28887 12.9999 11.6 12.0021 11.6 10.7713C11.6 9.85751 10.2169 9.23676 8.23943 8.97728L7.96545 9.41044C9.45589 9.60245 10.48 10.006 10.48 10.4742C10.48 11.1307 8.47421 11.6628 5.99999 11.6628C3.52577 11.6628 1.51999 11.1307 1.51999 10.4742C1.51985 10.0075 2.53723 9.6044 4.03229 9.41161C3.94199 9.26679 3.85113 9.12223 3.76069 8.97728H3.76083Z" fill="white"/>
</svg>
