<svg width="32" height="32" viewBox="0 0 32 32" fill="none" xmlns="http://www.w3.org/2000/svg">
<path d="M16 15.6189C16.7366 15.6189 17.3651 15.3585 17.8858 14.8379C18.4064 14.3173 18.6667 13.6887 18.6667 12.9522C18.6667 12.2157 18.4064 11.5871 17.8858 11.0665C17.3651 10.5458 16.7366 10.2855 16 10.2855C15.2635 10.2855 14.635 10.5458 14.1143 11.0665C13.5937 11.5871 13.3334 12.2157 13.3334 12.9522C13.3334 13.6887 13.5937 14.3173 14.1143 14.8379C14.635 15.3585 15.2635 15.6189 16 15.6189ZM16 31.2379C11.9112 27.7585 8.85719 24.5268 6.83814 21.5427C4.81909 18.5585 3.80957 15.7966 3.80957 13.257C3.80957 9.44743 5.03497 6.41251 7.48576 4.15219C9.93655 1.89188 12.7746 0.761719 16 0.761719C19.2254 0.761719 22.0635 1.89188 24.5143 4.15219C26.9651 6.41251 28.1905 9.44743 28.1905 13.257C28.1905 15.7966 27.181 18.5585 25.162 21.5427C23.1429 24.5268 20.0889 27.7585 16 31.2379Z" fill="#C10016"/>
</svg>
