<svg width="22" height="22" viewBox="0 0 22 22" fill="none" xmlns="http://www.w3.org/2000/svg">
<path d="M3.94372 22C3.49142 22 3.10696 21.8472 2.79035 21.5417C2.47374 21.2361 2.31543 20.8651 2.31543 20.4286V9.0619C2.31543 8.6254 2.47374 8.25436 2.79035 7.94881C3.10696 7.64325 3.49142 7.49048 3.94372 7.49048H5.84339V4.97619C5.84339 3.59683 6.34545 2.42262 7.34956 1.45357C8.35367 0.484524 9.57036 0 10.9996 0C12.4289 0 13.6456 0.484524 14.6497 1.45357C15.6538 2.42262 16.1559 3.59683 16.1559 4.97619V7.49048H18.0556C18.5079 7.49048 18.8923 7.64325 19.2089 7.94881C19.5255 8.25436 19.6838 8.6254 19.6838 9.0619V20.4286C19.6838 20.8651 19.5255 21.2361 19.2089 21.5417C18.8923 21.8472 18.5079 22 18.0556 22H3.94372ZM10.9996 16.7619C11.5786 16.7619 12.0716 16.5698 12.4787 16.1857C12.8857 15.8016 13.0893 15.3389 13.0893 14.7976C13.0893 14.2738 12.8857 13.798 12.4787 13.3702C12.0716 12.9425 11.5786 12.7286 10.9996 12.7286C10.4207 12.7286 9.92768 12.9425 9.52061 13.3702C9.11354 13.798 8.91 14.2738 8.91 14.7976C8.91 15.3389 9.11354 15.8016 9.52061 16.1857C9.92768 16.5698 10.4207 16.7619 10.9996 16.7619ZM7.47168 7.49048H14.5276V4.97619C14.5276 4.03333 14.1839 3.23016 13.4964 2.56667C12.8089 1.90317 11.9766 1.57143 10.9996 1.57143C10.0227 1.57143 9.19043 1.90317 8.50293 2.56667C7.81543 3.23016 7.47168 4.03333 7.47168 4.97619V7.49048Z" fill="#C10016"/>
</svg>
