<svg width="53" height="69" viewBox="0 0 53 69" fill="none" xmlns="http://www.w3.org/2000/svg">
<path d="M29.8007 49.4963C40.2596 46.7746 46.5302 36.0955 43.8066 25.6438C41.083 15.1922 30.3965 8.92584 19.9376 11.6476C9.4787 14.3693 3.20802 25.0484 5.93163 35.5001C8.65524 45.9517 19.3418 52.218 29.8007 49.4963Z" fill="#DAEBF7"/>
<path fill-rule="evenodd" clip-rule="evenodd" d="M18.4593 15.323C19.8307 14.677 21.0545 14.3932 21.1927 14.6863C21.2768 14.8655 20.9442 15.2147 20.3632 15.6068C19.9764 16.2155 20.5855 17.2144 20.5855 17.2144L18.9656 18.0321C18.4985 18.2693 18.7526 18.2133 18.3303 17.4795C18.0463 16.9866 17.8184 16.925 17.426 16.9828C16.774 17.1714 16.3087 17.1994 16.2265 17.0258C16.0883 16.7308 17.0879 15.969 18.4593 15.323Z" fill="#858584"/>
<path fill-rule="evenodd" clip-rule="evenodd" d="M19.3991 17.3339C26.6634 14.2364 34.6078 15.9112 35.273 17.4702C35.94 19.0293 30.5908 22.8064 23.3264 25.9039C16.0621 29.0014 9.63482 30.2487 8.9678 28.6896C8.30265 27.1306 12.1347 20.4314 19.3991 17.3339Z" fill="#999A9A"/>
<path fill-rule="evenodd" clip-rule="evenodd" d="M35.2056 17.3471C35.2336 17.3881 35.256 17.4292 35.2728 17.4684C35.9399 19.0274 30.5906 22.8046 23.3263 25.9021C16.346 28.8783 10.1392 30.146 9.0723 28.8577C10.2755 26.9066 15.0269 23.7568 21.088 21.0421C27.4218 18.2097 33.1541 16.7589 35.2056 17.3471Z" fill="#858584"/>
<path fill-rule="evenodd" clip-rule="evenodd" d="M18.773 18.3833C17.8276 18.6727 16.9588 19.1581 16.1348 19.694C15.2137 20.3158 14.429 20.9562 13.6181 21.7142C13.3341 21.9849 13.0613 22.2575 12.7941 22.5432C12.0281 23.3647 11.1294 24.4981 10.6978 25.538C10.6809 25.5772 10.268 26.6135 10.5389 26.4044C10.7576 26.2158 11.1761 25.4372 11.3498 25.1721C12.1439 24.0051 12.9398 23.0399 13.9282 22.0279C14.0777 21.8766 14.229 21.731 14.3841 21.5835C15.2454 20.7732 16.2133 19.9946 17.211 19.3523C17.6725 19.0555 18.1657 18.7493 18.659 18.5047C18.6627 18.5009 18.8589 18.4038 18.773 18.3833ZM18.2797 18.5924L18.2778 18.5943C18.2778 18.5924 18.2779 18.5924 18.2797 18.5924Z" fill="#D8D8D8"/>
<path fill-rule="evenodd" clip-rule="evenodd" d="M30.727 19.0011C29.2192 18.9937 27.7787 19.2308 26.3194 19.6005C24.2735 20.1644 22.2874 20.8888 20.3368 21.7215C18.6067 22.4833 16.5982 23.5121 15.0848 24.6323C14.6681 24.9572 13.0818 25.9262 13.8535 26.3799C14.8493 26.8766 16.1161 26.2604 17.0895 25.9356C19.5614 25.0599 21.3943 23.9247 23.7074 22.7634C25.2264 22.0221 26.7772 21.2958 28.3186 20.5975C29.1295 20.2241 29.7928 19.8395 30.5644 19.4231C30.7195 19.3279 30.8503 19.1823 30.727 19.0011ZM29.9124 19.2047C29.9105 19.2047 29.9105 19.2047 29.9086 19.2065L29.9124 19.2047Z" fill="#717170"/>
<path fill-rule="evenodd" clip-rule="evenodd" d="M30.8765 16.2339C26.7081 15.7466 23.0797 16.3422 20.9684 17.2627C18.8571 18.1831 23.1619 16.7753 27.6554 17.1544C28.8549 17.2552 29.1221 17.5969 29.7686 17.4307C31.7902 16.9135 33.2326 16.8575 33.2326 16.8575C33.2326 16.8575 31.5529 16.316 30.8765 16.2339Z" fill="#B7B7B8"/>
<path fill-rule="evenodd" clip-rule="evenodd" d="M35.2933 33.0117C38.0155 31.0176 40.2184 29.6266 42.5202 28.4391C44.8165 27.2554 47.1987 26.7233 50.289 25.5601L50.9 26.6897C47.8676 27.8305 45.5396 28.8294 43.3143 29.9776C41.0946 31.1222 38.9647 32.4683 36.3172 34.4083L35.2933 33.0117Z" fill="#999A9A"/>
<path fill-rule="evenodd" clip-rule="evenodd" d="M23.6776 31.565C31.3567 29.7203 38.4996 29.5075 38.8957 31.158C39.2918 32.8067 32.7935 35.6932 25.1144 37.5379C17.4353 39.3826 10.8885 39.5413 10.4924 37.8908C10.0944 36.2403 15.9985 33.4097 23.6776 31.565Z" fill="#999A9A"/>
<path fill-rule="evenodd" clip-rule="evenodd" d="M37.1244 32.4144C35.327 31.2325 32.7934 31.4976 30.6672 31.5424C28.2103 31.6489 25.9869 31.9681 23.5822 32.4704C22.6742 32.6702 21.7848 32.8867 20.8899 33.1388C18.3956 33.8688 15.5593 34.9069 13.4817 36.4884C13.2313 36.6975 11.561 37.9279 12.4279 38.2547C13.3434 38.5347 14.6382 37.8066 15.5519 37.4593C18.4367 36.382 21.129 35.3158 24.1054 34.4551C24.5164 34.3412 24.9275 34.2329 25.3404 34.1302C31.0782 32.7747 31.9116 33.2826 37.0403 33.249C37.186 33.2434 37.2103 32.6459 37.1244 32.4144Z" fill="#858584"/>
<path fill-rule="evenodd" clip-rule="evenodd" d="M36.166 34.8289C34.1275 36.2068 30.5776 37.2916 25.2769 38.5649C24.4081 38.7741 10.7651 39.7524 12.9941 37.9227C14.7728 36.4626 18.8347 35.0417 24.126 33.7702C29.6434 32.4446 34.8656 32.0245 37.1357 32.6052C37.9409 32.8105 36.6928 34.4723 36.166 34.8289Z" fill="#8CC7F0"/>
<path fill-rule="evenodd" clip-rule="evenodd" d="M10.4717 37.7376C10.4717 37.7395 10.4717 37.7432 10.4717 37.7469C10.4736 37.7432 10.4717 37.7413 10.4717 37.7376ZM10.6174 38.1521C11.5965 40.3291 15.7705 46.9237 17.9677 47.7658C21.2841 49.0354 34.8786 45.8035 37.4271 43.1783C38.6247 41.9442 39.1012 33.1389 38.862 31.2494C38.862 31.2494 38.8601 31.2494 38.8601 31.2476C38.8377 31.6733 36.4443 31.5407 37.0553 32.2297C37.3318 32.5415 37.0609 33.1277 36.6965 33.3406C34.2134 34.7857 29.8675 36.3952 25.1143 37.536C17.8014 39.2929 11.632 39.5151 10.6174 38.1521Z" fill="#999A9A"/>
<path fill-rule="evenodd" clip-rule="evenodd" d="M43.434 27.1607C44.3944 26.7107 45.3921 26.2738 46.4496 25.8313C47.6809 25.3179 49.7268 24.5766 51.1786 24.024C52.7835 23.4134 53.6934 26.2365 52.35 26.7481C50.902 27.2989 48.8487 28.042 47.5875 28.5685C46.5468 29.0035 45.5584 29.4386 44.5943 29.8923C44.1982 30.079 43.6975 30.0398 43.5704 29.8792C43.5405 29.84 43.8189 29.7541 43.7965 29.7037C43.6321 29.3396 43.4042 28.4359 43.1071 28.1839C43.0305 28.1185 42.8791 28.3389 42.838 28.2679C42.6101 27.887 42.7016 27.5024 43.434 27.1607Z" fill="#BD7E53"/>
<path fill-rule="evenodd" clip-rule="evenodd" d="M24.2604 22.7692C22.9339 22.9036 21.4989 24.5822 21.8502 25.2861C22.2014 25.99 23.6364 25.5829 23.6644 25.99C23.6906 26.3951 22.7171 27.6666 23.7447 27.7749C24.7742 27.8832 25.5048 27.7749 25.288 27.099C25.0713 26.4231 24.5836 25.7454 25.26 25.6912C25.9364 25.6371 26.7753 25.5288 26.7753 25.0695C26.7771 24.6083 26.2914 22.7151 24.2604 22.7692Z" fill="#E8BA94"/>
<path fill-rule="evenodd" clip-rule="evenodd" d="M20.3612 27.5562C19.115 27.6103 19.3597 28.5569 18.4928 30.1272C17.6259 31.6955 17.2204 32.1828 18.7095 31.6694C20.1987 31.1559 22.5285 28.2339 20.3612 27.5562Z" fill="#C63A2F"/>
<path fill-rule="evenodd" clip-rule="evenodd" d="M12.9174 29.328C12.9174 29.9479 13.3789 30.6406 14.0141 30.6406C14.6494 30.6406 15.2996 30.0842 15.2996 29.4643C15.2996 28.0995 12.9174 28.036 12.9174 29.328Z" fill="#E5AB16"/>
<path fill-rule="evenodd" clip-rule="evenodd" d="M28.9987 30.7904C28.9987 31.4102 29.4602 32.1029 30.0955 32.1029C30.7308 32.1029 31.381 31.5465 31.381 30.9267C31.381 29.5599 28.9987 29.4965 28.9987 30.7904Z" fill="#D8D8D8"/>
<path fill-rule="evenodd" clip-rule="evenodd" d="M25.6805 27.5991C27.8646 25.732 30.2954 23.1312 31.4762 23.8929C32.7766 24.7331 31.8238 27.8213 32.3413 28.2041C32.5823 28.3833 33.5165 26.4677 34.5217 25.465C36.0034 23.9882 33.5147 29.7538 32.6365 30.2486C31.2726 31.0197 30.2282 27.5207 30.2282 27.5207C28.7503 29.1899 27.7637 30.3326 26.8856 30.5585C25.034 31.0346 24.3801 28.7101 25.6805 27.5991Z" fill="#BD7E53"/>
<path fill-rule="evenodd" clip-rule="evenodd" d="M37.0048 31.2326C38.3781 30.3177 39.5103 29.0294 40.0764 27.7784C40.807 26.1671 39.5514 25.4184 38.5574 26.8822C37.8941 27.8569 37.6045 29.4084 36.7862 30.7733C36.4555 31.3278 36.2089 31.761 37.0048 31.2326Z" fill="#8CC7F0"/>
<path fill-rule="evenodd" clip-rule="evenodd" d="M35.4578 31.0423C36.2406 29.9071 36.534 28.6673 36.4219 27.7039C36.2817 26.5052 34.9028 26.5015 34.8375 27.7058C34.7907 28.546 35.1215 29.7465 35.0561 30.9377C35.0262 31.4512 35.1233 31.5258 35.4578 31.0423Z" fill="#8CC7F0"/>
<path fill-rule="evenodd" clip-rule="evenodd" d="M12.4149 36.8954C11.3088 36.6993 10.2196 36.2363 9.54134 35.622C8.64638 34.8117 9.34142 34.0555 10.3616 34.6997C11.0136 35.1123 11.5872 35.8946 12.4093 36.494C12.897 36.8487 13.4201 37.0746 12.4149 36.8954Z" fill="#8CC7F0"/>
<path fill-rule="evenodd" clip-rule="evenodd" d="M22.678 30.2412C21.4467 30.2412 20.2528 31.4903 20.2528 32.7207C20.2528 35.3029 24.9911 35.4168 24.9911 32.4687C24.9911 31.2382 23.9093 30.2412 22.678 30.2412Z" fill="#C63A2F"/>
<path fill-rule="evenodd" clip-rule="evenodd" d="M27.4816 31.5072C22.9545 31.8768 27.7077 37.7825 29.2641 33.6356C29.6303 32.6629 28.9932 31.4213 27.4816 31.5072Z" fill="#E5AB16"/>
<path fill-rule="evenodd" clip-rule="evenodd" d="M21.3775 31.608C21.3775 32.6162 23.7597 32.4706 23.7597 31.3204C23.7597 30.9638 23.0628 30.7547 22.4331 30.835C21.8764 30.9059 21.3775 31.2215 21.3775 31.608Z" fill="#CE6147"/>
<path fill-rule="evenodd" clip-rule="evenodd" d="M20.69 32.5885C21.2187 31.7296 23.1712 33.1038 22.5677 34.0822C22.3809 34.3846 21.6783 34.1979 21.1832 33.8002C20.746 33.4473 20.4882 32.9171 20.69 32.5885Z" fill="#CE6147"/>
<path fill-rule="evenodd" clip-rule="evenodd" d="M24.4921 32C23.6719 31.4137 22.4032 33.4321 23.3374 34.1024C23.627 34.3096 24.2044 33.8652 24.5052 33.3089C24.7724 32.8141 24.806 32.2241 24.4921 32Z" fill="#CE6147"/>
<path fill-rule="evenodd" clip-rule="evenodd" d="M22.5397 31.2771C22.6163 31.2603 22.7153 31.4153 22.7639 31.6244C22.8106 31.8335 22.7882 32.0165 22.7116 32.0333C22.635 32.0501 22.536 31.8951 22.4874 31.686C22.4407 31.4788 22.4631 31.2939 22.5397 31.2771Z" fill="#C10016"/>
<path fill-rule="evenodd" clip-rule="evenodd" d="M21.9886 31.4603C22.0521 31.423 22.1904 31.535 22.2931 31.7124C22.3978 31.8897 22.4295 32.0634 22.366 32.1007C22.3025 32.1381 22.1642 32.026 22.0615 31.8487C21.9568 31.6731 21.9232 31.4976 21.9886 31.4603Z" fill="#C10016"/>
<path fill-rule="evenodd" clip-rule="evenodd" d="M23.0739 31.2436C23.1487 31.2529 23.1879 31.4247 23.1636 31.6282C23.1393 31.8317 23.059 31.9904 22.9861 31.9811C22.9114 31.9717 22.8721 31.8 22.8964 31.5964C22.9207 31.3929 22.9992 31.2342 23.0739 31.2436Z" fill="#C10016"/>
<path fill-rule="evenodd" clip-rule="evenodd" d="M21.5699 33.4432C21.512 33.3909 21.5774 33.2191 21.7194 33.0586C21.8614 32.898 22.022 32.8084 22.0818 32.8588C22.1397 32.9092 22.0743 33.0828 21.9324 33.2434C21.7904 33.404 21.6278 33.4936 21.5699 33.4432Z" fill="#C10016"/>
<path fill-rule="evenodd" clip-rule="evenodd" d="M22.0427 33.781C21.9736 33.7511 21.9848 33.5738 22.067 33.3871C22.1492 33.1985 22.2706 33.0696 22.3398 33.0995C22.4089 33.1294 22.3977 33.3068 22.3155 33.4935C22.2333 33.6821 22.11 33.8109 22.0427 33.781Z" fill="#C10016"/>
<path fill-rule="evenodd" clip-rule="evenodd" d="M21.2279 33.0303C21.1924 32.9649 21.3064 32.8305 21.4858 32.7315C21.6651 32.6307 21.8408 32.6027 21.8763 32.6681C21.9118 32.7334 21.7978 32.8678 21.6184 32.9668C21.4391 33.0676 21.2634 33.0956 21.2279 33.0303Z" fill="#C10016"/>
<path fill-rule="evenodd" clip-rule="evenodd" d="M24.0027 33.1201C24.0494 33.0566 23.9467 32.9035 23.7748 32.7747C23.6029 32.6477 23.4254 32.5935 23.3787 32.657C23.332 32.7205 23.4347 32.8736 23.6066 33.0024C23.7785 33.1294 23.956 33.1835 24.0027 33.1201Z" fill="#C10016"/>
<path fill-rule="evenodd" clip-rule="evenodd" d="M23.6121 33.5512C23.6738 33.5083 23.6252 33.3365 23.5056 33.1703C23.386 33.0042 23.2403 32.9033 23.1787 32.9482C23.1189 32.9911 23.1656 33.1629 23.2851 33.329C23.4066 33.4933 23.5523 33.5942 23.6121 33.5512Z" fill="#C10016"/>
<path fill-rule="evenodd" clip-rule="evenodd" d="M24.2493 32.6456C24.2717 32.5747 24.1297 32.4683 23.9335 32.4085C23.7373 32.3488 23.5598 32.3581 23.5393 32.4291C23.5169 32.5 23.6589 32.6064 23.855 32.6662C24.0512 32.7259 24.2269 32.7166 24.2493 32.6456Z" fill="#C10016"/>
<path fill-rule="evenodd" clip-rule="evenodd" d="M26.1308 30.3665C26.553 30.3926 26.9678 30.1872 27.3191 29.9781C27.3265 29.9762 27.4032 29.9277 27.4144 29.9184C27.8235 29.6532 28.1748 29.362 28.5354 29.039C28.6475 28.9344 28.7559 28.8298 28.8642 28.7234C29.1688 28.4172 29.677 27.8926 29.9105 27.5415C29.9853 27.4164 30.088 27.2969 29.9703 27.1756C29.7816 27.0131 29.5612 27.2055 29.3837 27.3306C28.9091 27.6928 28.5167 28.1894 28.1131 28.6301C28.0347 28.7159 27.9562 28.7981 27.8759 28.8821C27.6124 29.1491 27.3527 29.3956 27.0687 29.642C26.9753 29.7204 26.88 29.797 26.781 29.8698C26.6016 30.0005 26.3793 30.1667 26.1794 30.2638C26.142 30.2824 26.1009 30.3179 26.1308 30.3665ZM26.3587 30.3105C26.3606 30.3105 26.3587 30.3105 26.3587 30.3105V30.3105Z" fill="#A3694C"/>
<path fill-rule="evenodd" clip-rule="evenodd" d="M24.9612 23.3198C25.0453 23.3534 25.1125 23.4057 25.1779 23.4654C25.2583 23.5457 25.3218 23.6279 25.3872 23.7212C25.4283 23.7847 25.4675 23.8482 25.5049 23.9135C25.5852 24.0592 25.645 24.1899 25.6842 24.3523C25.7048 24.4401 25.7179 24.5222 25.7085 24.6118C25.7029 24.6529 25.6955 24.6902 25.6712 24.7239C25.6693 24.7257 25.6618 24.7351 25.6618 24.7351C25.6357 24.7631 25.6095 24.778 25.5759 24.7948C25.475 24.8415 25.3685 24.8639 25.2601 24.8826C25.1835 24.8938 25.12 24.9068 25.0471 24.9348C24.8977 24.9965 24.7538 25.0431 24.8061 25.228C24.879 25.4222 25.0546 25.3885 25.2601 25.4259C25.2751 25.4296 25.2956 25.4315 25.3106 25.4334C25.503 25.4539 25.6525 25.4483 25.8337 25.3773C26.0093 25.2989 26.1196 25.2018 26.213 25.0319C26.2877 24.8751 26.3046 24.7463 26.2933 24.5745C26.284 24.4849 26.2672 24.4083 26.2429 24.3224C26.2242 24.2627 26.2037 24.2085 26.1794 24.1507C26.0411 23.8594 25.8972 23.6615 25.6506 23.4598C25.645 23.4542 25.6039 23.4225 25.5946 23.4169C25.4974 23.3478 25.4133 23.3011 25.2994 23.2694C25.2003 23.2376 25.1256 23.2246 25.0228 23.2339C24.9761 23.2414 24.9518 23.2694 24.9612 23.3198Z" fill="#DE995C"/>
<path fill-rule="evenodd" clip-rule="evenodd" d="M38.2362 29.8323C38.5276 29.6214 38.7967 29.4029 39.0452 29.1415C39.3011 28.8615 39.5309 28.531 39.6898 28.1856C39.8262 27.8868 39.9476 27.435 39.9532 27.1082C39.9532 27.1008 39.9551 27.0205 39.9551 27.0205C39.9271 27.0336 39.9513 26.9365 39.9532 26.9253C39.9588 26.8917 39.9644 26.8599 39.9625 26.8263C39.9551 26.6956 39.9121 26.7087 39.8243 26.7367C39.8 26.7442 39.7757 26.7442 39.7514 26.746C39.7197 26.746 39.701 26.7498 39.6711 26.7628C39.6113 26.7964 39.5739 26.8413 39.544 26.9029C39.5366 26.9066 39.4058 27.1755 39.3946 27.1997C39.204 27.6068 39.1349 27.9522 38.9686 28.3499C38.849 28.6225 38.6864 28.9063 38.5276 29.1602C38.4136 29.3432 38.3221 29.5317 38.2156 29.7185C38.1969 29.7558 38.1782 29.8137 38.2362 29.8323ZM38.3912 29.6587C38.3912 29.6587 38.3931 29.6587 38.3912 29.6587V29.6587Z" fill="white"/>
<path fill-rule="evenodd" clip-rule="evenodd" d="M15.946 33.8749C9.24968 29.3733 4.631 27.1234 2.60752 26.6062C1.20996 26.2496 0.585917 27.0021 1.48275 27.8759C3.59777 29.9372 15.4434 34.6927 15.4434 34.6927C15.4434 34.6927 15.4696 37.5456 19.6473 37.863C23.825 38.1823 20.4675 32.6333 15.946 33.8749Z" fill="#BD7E53"/>
<path fill-rule="evenodd" clip-rule="evenodd" d="M14.8531 33.9942C13.9731 33.477 12.9884 32.9934 12.0748 32.536C10.6772 31.8395 9.2778 31.1431 7.88211 30.443C7.57943 30.2917 7.27862 30.1367 6.97594 29.9836C6.01558 29.4982 5.04962 29.0146 4.08366 28.5441C3.76603 28.3854 3.4484 28.2267 3.12891 28.0736C3.00559 28.0157 2.88228 27.956 2.76083 27.8962C2.65433 27.8383 2.20405 27.562 2.11063 27.5284C2.09195 27.5116 2.07513 27.4948 2.05271 27.4817C1.90511 27.4257 1.99479 27.5396 1.99853 27.5489C2.00039 27.5639 1.99853 27.5714 2.00413 27.5882C2.00413 27.59 2.00787 27.6012 2.00787 27.6012C2.00413 27.8608 2.37968 28.096 2.55718 28.2248C2.90657 28.4918 3.3008 28.7252 3.67822 28.9493C3.72679 28.9773 3.77537 29.0053 3.82395 29.0333C5.05896 29.7596 6.34068 30.3533 7.63548 30.962C8.01103 31.145 8.39779 31.3186 8.77707 31.496C10.2139 32.1682 11.6544 32.8291 13.1155 33.4453C13.6442 33.6674 14.1637 33.8635 14.7111 34.0278C14.7373 34.0371 14.8755 34.0745 14.8531 33.9942ZM14.4458 33.8149H14.4439H14.4458Z" fill="#A3694C"/>
<path fill-rule="evenodd" clip-rule="evenodd" d="M16.6635 34.5693C16.9307 34.517 17.1997 34.5357 17.4669 34.5675C17.5678 34.5843 17.6668 34.6048 17.7677 34.6272C18.0106 34.6832 18.2218 34.7504 18.4534 34.8438C18.6739 34.939 18.8626 35.038 19.0681 35.1612C19.4456 35.3871 19.737 35.6112 20.0939 35.852C20.2191 35.9342 20.475 36.1825 20.5479 35.9995C20.6301 35.7381 20.4059 35.4954 20.2546 35.305C19.8697 34.8382 19.3353 34.5805 18.7711 34.3938C18.7542 34.3882 18.6085 34.3453 18.6066 34.3434C18.2031 34.2351 17.8892 34.181 17.4744 34.209C17.4464 34.2108 17.4183 34.2127 17.3903 34.2146C17.1306 34.237 16.8952 34.3079 16.6841 34.461C16.6467 34.4909 16.6243 34.5301 16.6635 34.5693Z" fill="#DE995C"/>
<path fill-rule="evenodd" clip-rule="evenodd" d="M46.0197 28.5851C46.2047 28.5161 46.3897 28.447 46.5746 28.376C47.2734 28.109 47.9741 27.8495 48.6766 27.5956C48.9176 27.5022 49.1661 27.4182 49.4109 27.3267C50.0274 27.0971 50.6328 26.8525 51.2251 26.5687C51.3951 26.4865 51.5651 26.4081 51.7277 26.311C51.8304 26.2494 51.9351 26.1878 52.0322 26.1187C52.1051 26.0776 52.2004 26.0235 52.2583 25.9637C52.3443 25.9058 52.3517 25.8069 52.2882 25.7565C52.2527 25.7359 52.2209 25.7247 52.1798 25.7191C52.0827 25.6631 51.9855 25.6762 51.8772 25.6911C51.61 25.7061 51.2213 25.8256 50.9672 25.9002C50.9672 25.9002 50.9654 25.9002 50.9635 25.9002C50.0611 26.143 49.2352 26.5332 48.3851 26.9103C48.2413 26.972 48.0974 27.0392 47.9535 27.1027C47.2155 27.4331 46.5074 27.7561 45.8105 28.1632C45.7675 28.1856 45.7245 28.2117 45.6834 28.236C43.2545 29.6587 44.8202 29.0706 46.0197 28.5851Z" fill="#A3694C"/>
<path fill-rule="evenodd" clip-rule="evenodd" d="M16.6018 28.2715C16.9157 28.5254 17.4557 28.5739 17.7154 28.2528C17.9751 27.9298 17.9583 27.3734 17.6425 27.1195C16.9512 26.5612 15.9441 27.7431 16.6018 28.2715Z" fill="#C63A2F"/>
<path fill-rule="evenodd" clip-rule="evenodd" d="M33.6024 23.9434C33.9163 24.1973 34.4563 24.2459 34.716 23.9229C34.9757 23.6017 34.9589 23.0434 34.645 22.7895C33.9518 22.2331 32.9466 23.415 33.6024 23.9434Z" fill="#8CC7F0"/>
<path fill-rule="evenodd" clip-rule="evenodd" d="M21.856 46.5335C22.8369 46.8883 25.8282 46.3225 26.839 46.1172C27.7414 45.9211 28.6233 45.7045 29.5127 45.4599C31.0896 45.038 32.6348 44.5693 34.1239 43.8934C34.2584 43.8281 34.3929 43.7609 34.5256 43.6899C35.0188 43.4267 35.4299 43.1671 35.8633 42.8105C36.1193 42.5902 36.3192 42.3904 36.5266 42.1216C36.7471 41.821 36.8816 41.5689 36.9844 41.2104C37.302 39.9408 37.4907 38.66 37.3898 37.3474C37.345 36.9516 37.2441 34.8977 36.4052 35.4523C35.5943 36.0572 35.4747 37.3698 35.1889 38.3762C34.9759 39.095 34.7591 39.812 34.5349 40.5252C34.5405 40.4822 34.505 40.5532 34.4826 40.5831C34.3948 40.6914 34.3014 40.7828 34.1986 40.8743C33.81 41.2141 33.3989 41.4755 32.9542 41.7351C32.2947 42.1197 31.6482 42.4296 30.9476 42.734C30.2563 43.0271 29.565 43.2978 28.8606 43.5611C27.3434 44.11 25.8058 44.6253 24.2737 45.1313C23.4889 45.389 22.6612 45.6877 21.9643 46.1396C21.8466 46.2385 21.8242 46.3935 21.856 46.5335ZM22.4015 46.4476H22.4053C22.4034 46.4458 22.4015 46.4458 22.4015 46.4476Z" fill="#858584"/>
<path fill-rule="evenodd" clip-rule="evenodd" d="M11.6937 38.9926C13.9115 39.6516 16.1629 39.7431 18.461 39.6535C21.3215 39.4817 23.8625 39.0374 26.6371 38.3465C27.1416 38.2158 27.6404 38.0795 28.1393 37.9358C30.7887 37.1497 33.7482 36.1004 36.1398 34.7113C36.1491 34.7057 37.9334 33.634 37.3524 33.6377C36.833 33.6732 35.1271 34.5283 34.6376 34.7393C31.8985 35.882 29.3033 36.8155 26.4428 37.6296C25.63 37.8536 24.8266 38.0553 24.0027 38.242C21.4093 38.8189 18.646 39.2203 15.9798 39.2297C14.6943 39.2334 13.3453 39.1755 12.0748 38.9645C12.0337 38.9571 11.5442 38.8731 11.6937 38.9926ZM12.9455 39.2446L12.9511 39.2465C12.9492 39.2465 12.9474 39.2465 12.9455 39.2446Z" fill="#C4C4C4"/>
<path fill-rule="evenodd" clip-rule="evenodd" d="M43.1201 29.4702C42.8324 29.4964 42.4456 29.642 42.1803 29.7503C41.7337 29.9389 41.3003 30.1461 40.8687 30.3664C40.7939 30.4056 40.7192 30.443 40.6445 30.484C40.3474 30.6465 40.0484 30.8295 39.7925 31.0498C39.6972 31.1245 39.5963 31.2104 39.5141 31.3C39.3964 31.4381 39.2338 31.6024 39.4431 31.7051C39.6729 31.8209 39.8411 31.6547 40.0952 31.5184L40.1045 31.5128C40.4931 31.3392 40.8201 31.1058 41.177 30.8743C41.2965 30.7977 41.4161 30.723 41.5357 30.6502C41.9318 30.4094 42.3279 30.176 42.7165 29.9202C42.8865 29.8044 42.9837 29.7204 43.122 29.5729C43.1481 29.5393 43.1462 29.5038 43.1201 29.4702ZM42.9912 29.5337C42.9912 29.5356 42.9912 29.5356 42.9912 29.5337V29.5337Z" fill="#858584"/>
<path fill-rule="evenodd" clip-rule="evenodd" d="M23.4533 37.368C25.0209 37.0692 26.5698 36.7462 28.1205 36.3709C29.9684 35.9079 31.9339 35.3795 33.6641 34.5748C35.497 33.6917 36.42 33.2548 36.519 32.956C36.7058 32.394 34.3087 32.5677 31.975 32.8776C31.9489 32.8813 30.017 33.1297 30.5457 33.2902C31.1025 33.4303 34.6319 33.2435 34.5404 33.4359C34.4002 33.7253 32.6757 34.3881 31.4874 34.8362C29.8245 35.4505 28.072 35.9396 26.3605 36.4158C25.4599 36.6659 24.5725 36.9348 23.6794 37.2149C23.6364 37.2298 23.3206 37.3344 23.4533 37.368ZM24.3221 37.1514C24.324 37.1514 24.3258 37.1514 24.3258 37.1495L24.3221 37.1514Z" fill="#B1D7F5"/>
<path fill-rule="evenodd" clip-rule="evenodd" d="M35.639 29.946C35.781 29.6995 35.9062 29.4568 36.0015 29.188C36.0967 28.9023 36.1584 28.5905 36.1621 28.2899C36.1659 28.0304 36.108 27.6644 36.0089 27.4273C36.0071 27.4217 35.9828 27.3638 35.9828 27.3638C35.966 27.3825 35.9529 27.304 35.951 27.2947C35.9435 27.2686 35.9379 27.2443 35.9249 27.22C35.8781 27.1267 35.8501 27.1528 35.7959 27.1995C35.781 27.2126 35.7642 27.22 35.7455 27.2294C35.7231 27.2406 35.71 27.248 35.6932 27.2667C35.6614 27.3096 35.6483 27.3545 35.6465 27.4086C35.6427 27.4123 35.6334 27.6495 35.6334 27.6719C35.6259 28.0266 35.6857 28.2992 35.6932 28.639C35.6932 28.8743 35.667 29.1319 35.6334 29.3653C35.6091 29.5334 35.6035 29.6995 35.5867 29.8694C35.5867 29.9031 35.5923 29.9516 35.639 29.946Z" fill="white"/>
<path fill-rule="evenodd" clip-rule="evenodd" d="M11.9103 36.511C11.6263 36.4885 11.3554 36.4512 11.0807 36.3765C10.7911 36.2925 10.5015 36.1637 10.2512 35.9956C10.0344 35.85 9.76724 35.5961 9.62898 35.3776C9.62525 35.372 9.59162 35.3197 9.59162 35.3197C9.61777 35.3179 9.55985 35.26 9.55425 35.2544C9.53556 35.2339 9.52062 35.2152 9.50754 35.1909C9.45896 35.0994 9.49446 35.0901 9.56359 35.0733C9.58227 35.0677 9.59909 35.0583 9.61777 35.049C9.64019 35.0359 9.65327 35.0303 9.67756 35.0285C9.73174 35.0266 9.77659 35.0415 9.82143 35.0696C9.82703 35.0696 10.027 35.1965 10.0456 35.2077C10.3427 35.4038 10.5314 35.6091 10.8079 35.8089C11.0004 35.9434 11.2283 36.0685 11.4395 36.1749C11.5927 36.2514 11.7309 36.341 11.8804 36.4232C11.9066 36.4437 11.9421 36.4755 11.9103 36.511ZM11.7347 36.4587C11.7347 36.4587 11.7328 36.4587 11.7347 36.4587V36.4587Z" fill="white"/>
<path fill-rule="evenodd" clip-rule="evenodd" d="M20.6302 37.5119C19.795 37.5884 19.072 37.6295 18.2312 37.6034C18.2144 37.6015 18.1975 37.5996 18.1789 37.5978C17.7136 37.5754 17.1251 37.6108 16.658 37.6314C16.4001 37.6482 16.1423 37.6594 15.8882 37.7005C15.8266 37.7117 15.763 37.721 15.7014 37.7341C15.6023 37.7471 15.479 37.7621 15.3819 37.7901C15.352 37.7957 15.3165 37.8013 15.2903 37.8181C15.281 37.8218 15.2735 37.8255 15.266 37.8349C15.2623 37.8405 15.2399 37.9002 15.2436 37.9096C15.2436 37.917 15.2567 37.9357 15.2623 37.9413L15.2679 37.9469C15.2941 37.988 15.3221 38.0104 15.3632 38.0347C15.4473 38.1037 15.5893 38.1224 15.6939 38.1374C15.8976 38.1766 16.1162 38.1934 16.3235 38.2102C16.4375 38.2195 16.5515 38.2251 16.6655 38.2307C17.1699 38.2456 17.7267 38.2494 18.2293 38.212C18.5675 38.2064 18.8945 38.1878 19.2308 38.1579C19.9482 38.0925 20.6059 37.9618 21.3047 37.8087C22.3006 37.5903 23.0124 37.2654 22.8966 37.2225C22.7303 37.1627 21.3346 37.4503 20.6302 37.5119Z" fill="#5DABE2"/>
<path fill-rule="evenodd" clip-rule="evenodd" d="M26.3382 27.8704C26.6595 27.5792 27.0332 27.314 27.3845 27.0601C27.9824 26.6288 28.5989 26.2423 29.223 25.8521C29.6807 25.5646 30.2955 25.1855 30.6934 24.8326C30.7943 24.7374 31.1063 24.5078 30.9232 24.3957C30.6803 24.2688 30.3777 24.4592 30.1553 24.5582C29.4435 24.8849 28.7559 25.4152 28.1318 25.8838C27.6349 26.2572 27.1435 26.6493 26.7231 27.1086C26.5381 27.3122 26.4054 27.5101 26.3008 27.7621C26.284 27.8069 26.2821 27.8574 26.3382 27.8704Z" fill="#DE995C"/>
<path fill-rule="evenodd" clip-rule="evenodd" d="M22.4108 24.8138C22.5472 24.6831 22.6874 24.558 22.8238 24.4291C23.0069 24.2555 23.1806 24.1136 23.3712 23.953C23.4982 23.8466 23.7019 23.645 23.758 23.49C23.8028 23.3686 23.8532 23.2641 23.7299 23.1744C23.5786 23.0624 23.5095 23.1035 23.332 23.18C23.061 23.3051 22.8948 23.5553 22.7191 23.785C22.5734 23.9773 22.4613 24.1509 22.3791 24.3787C22.3324 24.5076 22.3324 24.6102 22.3398 24.7428C22.3454 24.782 22.3735 24.8044 22.4108 24.8138Z" fill="white"/>
<path fill-rule="evenodd" clip-rule="evenodd" d="M20.9029 28.6562C20.7759 28.9549 20.6227 29.1733 20.4115 29.4198C20.2322 29.6215 20.0603 29.7727 19.8473 29.9351C19.7539 30.0042 19.6623 30.0696 19.567 30.1368C19.3054 30.3253 18.9878 30.5587 18.7879 30.8089C18.7038 30.9247 18.5282 31.1114 18.6963 31.2048C18.9 31.3037 19.0513 31.1973 19.2569 31.1021C19.6716 30.8985 19.9164 30.6708 20.2415 30.3459C20.2695 30.3179 20.2957 30.2899 20.3237 30.2619C20.589 29.9837 20.7908 29.7017 20.9179 29.3377C20.9907 29.1304 20.9982 28.9493 20.9833 28.7327C20.9777 28.686 20.9552 28.645 20.9029 28.6562Z" fill="#AA1214"/>
<path fill-rule="evenodd" clip-rule="evenodd" d="M28.8904 32.958C28.8437 33.1354 28.7335 33.2791 28.612 33.4117C28.5709 33.4528 28.528 33.4901 28.485 33.5275C28.3635 33.6302 28.2533 33.7011 28.1113 33.7721C27.973 33.8355 27.8647 33.871 27.7171 33.9028C27.6554 33.9158 27.5938 33.927 27.5321 33.9364C27.3639 33.9606 27.2089 33.9625 27.0463 33.9793C26.9977 33.9849 26.9529 33.9886 26.9043 33.9905L26.8819 33.983C26.7735 34.0054 26.71 34.0204 26.7194 34.1455C26.7268 34.2202 26.7287 34.2575 26.781 34.3172C26.781 34.3172 26.7698 34.3135 26.7642 34.3116C26.8539 34.4106 26.9791 34.4703 27.1005 34.5189C27.2929 34.5861 27.4387 34.5973 27.6386 34.5674C27.902 34.5189 28.102 34.4218 28.328 34.278C28.3598 34.2575 28.3916 34.2351 28.4233 34.2127C28.6531 34.0353 28.8082 33.8747 28.9334 33.6134C28.9465 33.5853 28.9596 33.5592 28.9708 33.5312C29.0436 33.3557 29.0548 33.1783 28.9895 32.9991C28.967 32.958 28.9334 32.9449 28.8904 32.958ZM28.8886 33.0924C28.8886 33.0943 28.8886 33.0943 28.8886 33.0924V33.0924Z" fill="#D37719"/>
<path fill-rule="evenodd" clip-rule="evenodd" d="M14.8139 29.0911C14.8065 29.1845 14.7859 29.2592 14.7373 29.3413C14.7149 29.3805 14.6943 29.4048 14.6645 29.4365C14.6514 29.4496 14.6402 29.459 14.6252 29.4702C14.5299 29.5392 14.4365 29.5654 14.3263 29.5971C14.3225 29.599 14.3057 29.6027 14.3001 29.6046C14.1992 29.6363 14.0815 29.6886 14.0012 29.7558C13.9713 29.782 13.9489 29.7969 13.9246 29.8305C13.9096 29.8529 13.8947 29.8735 13.8835 29.8959C13.777 30.021 13.805 30.0452 13.8965 30.1311C13.9414 30.1797 13.9563 30.2301 14.0199 30.2506C14.0703 30.2786 14.132 30.2786 14.188 30.2786H14.1917C14.3674 30.2898 14.4888 30.2207 14.6327 30.1274C14.7 30.0807 14.7597 30.034 14.8214 29.9799C14.9167 29.8921 14.9802 29.8156 15.0363 29.6979C15.0848 29.5841 15.0979 29.5 15.0886 29.3768C15.0886 29.3749 15.0886 29.3712 15.0886 29.3693C15.0624 29.2405 15.012 29.1752 14.9167 29.0911C14.8812 29.065 14.8457 29.0725 14.8139 29.0911Z" fill="#D37719"/>
<path fill-rule="evenodd" clip-rule="evenodd" d="M26.4445 32.7077C26.4726 32.6442 26.5062 32.605 26.5604 32.562C26.609 32.5266 26.6538 32.506 26.7099 32.4836C26.7192 32.4799 26.7285 32.478 26.7379 32.4743C26.8519 32.4369 26.9527 32.4239 27.0723 32.4201C27.1153 32.4183 27.1583 32.4201 27.2012 32.4201C27.2722 32.4201 27.3507 32.4164 27.4198 32.4033C27.4722 32.394 27.5077 32.3865 27.5525 32.3567C27.5525 32.3567 27.5544 32.3567 27.5544 32.3548C27.6347 32.3062 27.7281 32.2596 27.7711 32.1699C27.829 32.043 27.8029 31.9907 27.6889 31.9048C27.6515 31.8768 27.6179 31.8563 27.5768 31.8357C27.5319 31.8152 27.4946 31.8021 27.4479 31.7909C27.2536 31.7499 27.0854 31.8021 26.9023 31.8675C26.8743 31.8787 26.8462 31.8899 26.8182 31.9011C26.6631 31.9683 26.538 32.0411 26.4296 32.1737C26.3941 32.2185 26.3679 32.2596 26.3418 32.31C26.3231 32.3511 26.3119 32.3865 26.3044 32.4313C26.2932 32.5284 26.3063 32.59 26.3493 32.6741C26.3735 32.7245 26.4445 32.7077 26.4445 32.7077Z" fill="#FFEC00"/>
<path fill-rule="evenodd" clip-rule="evenodd" d="M13.3919 29.048C13.4816 29.0088 13.5657 28.9808 13.6572 28.949C13.7245 28.9266 13.7843 28.9117 13.8534 28.9005C13.8964 28.8949 13.9338 28.893 13.9767 28.8912C14.0496 28.8874 14.1486 28.8725 14.2103 28.8314C14.2215 28.8239 14.2346 28.8146 14.2477 28.8071C14.2308 28.8015 14.2159 28.7959 14.2047 28.7829C14.2028 28.781 14.1991 28.7754 14.2009 28.7717C14.2047 28.7661 14.2122 28.7661 14.2178 28.7661C14.2888 28.7679 14.2925 28.7605 14.3317 28.7026C14.3485 28.6783 14.3672 28.6559 14.3747 28.626C14.3766 28.6148 14.3766 28.6055 14.3728 28.5943C14.3691 28.5868 14.3654 28.5812 14.3598 28.5756C14.3448 28.5625 14.3299 28.5551 14.3112 28.5495C14.2775 28.514 14.2346 28.4935 14.1897 28.4748C14.0197 28.4057 13.8534 28.4767 13.7002 28.5551C13.7002 28.5551 13.6983 28.5569 13.6965 28.5569C13.5694 28.626 13.4928 28.6802 13.4087 28.7978C13.3658 28.8594 13.3564 28.9192 13.3527 28.992C13.3527 29.0181 13.3714 29.0349 13.3919 29.048Z" fill="#FFEC00"/>
<path fill-rule="evenodd" clip-rule="evenodd" d="M18.8496 29.9648C18.986 29.7986 19.1298 29.638 19.2588 29.4644C19.3111 29.3916 19.3597 29.3188 19.4082 29.2441C19.5203 29.0686 19.61 28.9061 19.6978 28.7176C19.7782 28.5365 19.866 28.318 19.937 28.1332C19.9744 28.0361 20.1238 27.784 19.9781 27.7803C19.7913 27.7896 19.6698 27.9502 19.5521 28.0865C19.326 28.3553 19.3316 28.5364 19.2139 28.8408C19.1803 28.9248 19.1467 29.0032 19.1074 29.0854C19.0346 29.2347 18.9804 29.358 18.9225 29.5111C18.8757 29.6362 18.8533 29.7631 18.8178 29.8901C18.8104 29.92 18.8085 29.9629 18.8496 29.9648ZM18.9225 29.8285C18.9225 29.8285 18.9225 29.8266 18.9225 29.8285V29.8285Z" fill="#CF634D"/>
<path fill-rule="evenodd" clip-rule="evenodd" d="M29.8619 31.6753C30.017 31.7238 30.144 31.7705 30.3084 31.7948C30.3682 31.8022 30.4205 31.8041 30.4803 31.8022C30.6223 31.7948 30.7251 31.7668 30.8465 31.6939C30.8895 31.6678 30.925 31.6417 30.9624 31.608C31.0483 31.5278 31.0988 31.4419 31.1436 31.3336C31.1828 31.229 31.2015 31.1319 31.1754 31.0218C31.1473 30.9266 31.1193 30.8145 31.0035 30.8537C30.8802 30.9004 30.8858 30.9434 30.8148 31.0573C30.7923 31.0909 30.7718 31.1245 30.7494 31.1599C30.7045 31.2365 30.6634 31.3149 30.5999 31.3765C30.5943 31.3859 30.5513 31.4139 30.5401 31.4195C30.4971 31.4437 30.4598 31.4568 30.4112 31.4699C30.3925 31.4811 30.1814 31.5147 30.144 31.5203C30.045 31.5352 29.9702 31.5651 29.8806 31.608C29.8619 31.6249 29.8563 31.6491 29.8619 31.6753Z" fill="#AFB0B0"/>
<path fill-rule="evenodd" clip-rule="evenodd" d="M29.38 30.5994C29.3856 30.5882 29.393 30.5807 29.4024 30.5714C29.4061 30.5677 29.4323 30.5509 29.436 30.549C29.4678 30.5341 29.4995 30.5229 29.5332 30.5116C29.5519 30.506 29.5687 30.5023 29.5873 30.4967C29.6565 30.4762 29.7256 30.4556 29.7966 30.4388C29.8302 30.4295 29.8657 30.4239 29.8994 30.4146C29.9461 30.4015 30.0096 30.3753 30.0488 30.3473C30.0825 30.3268 30.1105 30.3063 30.1311 30.2727C30.1591 30.2204 30.1666 30.1438 30.1572 30.0859C30.1348 29.9702 30.0862 29.9609 29.9685 29.959C29.9442 29.959 29.9237 29.9609 29.8994 29.9646C29.7891 29.9758 29.6995 30.0449 29.6079 30.1028C29.6004 30.1065 29.5911 30.114 29.5836 30.1177C29.4939 30.1774 29.4211 30.2297 29.3613 30.3212C29.3557 30.3268 29.3463 30.3436 29.3407 30.3511C29.3183 30.3884 29.3071 30.422 29.3034 30.465C29.2996 30.493 29.2996 30.5135 29.3052 30.5397C29.3052 30.5509 29.3127 30.5695 29.3164 30.5789C29.3295 30.6125 29.38 30.5994 29.38 30.5994Z" fill="white"/>
<path fill-rule="evenodd" clip-rule="evenodd" d="M44.312 27.2501C45.3097 27.0858 49.2632 25.4409 50.7262 24.9386C50.8402 24.8994 51.3484 24.8061 51.2325 24.6847C51.0158 24.5036 50.4553 24.6604 50.218 24.709C48.5869 25.0693 46.597 25.9805 45.1285 26.7479C44.8669 26.8842 44.6147 27.0317 44.355 27.168C44.3344 27.181 44.2709 27.2184 44.312 27.2501ZM44.5455 27.1661C44.5474 27.1661 44.5474 27.1661 44.5455 27.1661V27.1661Z" fill="#E8BA94"/>
<path fill-rule="evenodd" clip-rule="evenodd" d="M11.163 31.132C10.5334 30.7493 9.88316 30.3852 9.23856 30.0286C7.51029 29.0782 4.82354 27.5248 2.93832 26.9572C2.89909 26.946 2.01907 26.707 2.20404 26.9385C2.2302 26.9665 9.52816 30.4991 9.92426 30.6858C10.2979 30.8613 10.6641 31.0163 11.0546 31.1507C11.0715 31.1563 11.1817 31.1918 11.163 31.132Z" fill="#DE995C"/>
<path fill-rule="evenodd" clip-rule="evenodd" d="M19.2027 37.2222C18.8776 37.1699 18.5675 37.0541 18.2648 36.9253C17.9584 36.789 17.7043 36.6471 17.4278 36.4567C17.2932 36.3596 17.1718 36.2625 17.0466 36.1542C16.9046 36.0291 16.7794 35.9077 16.6505 35.7696C16.5122 35.6146 16.4057 35.4708 16.2824 35.3047C16.2133 35.2076 16.09 34.9294 16.0003 35.0395C15.8714 35.2281 16.0115 35.5045 16.0918 35.6856C16.161 35.8237 16.2301 35.9301 16.3254 36.0496C16.5888 36.3652 16.8784 36.5706 17.2278 36.7834C17.2465 36.7946 17.2671 36.8058 17.2876 36.8189C17.68 37.0467 18.1078 37.2222 18.5563 37.2987C18.7637 37.3342 18.9486 37.3323 19.1523 37.2894C19.184 37.2782 19.2233 37.2595 19.2027 37.2222Z" fill="#AA6E4C"/>
<path d="M22.1585 11.6202C21.7695 10.5076 21.3363 9.43281 20.859 8.39596C20.3771 7.34776 19.9359 6.26965 19.5355 5.16164C19.3539 5.23586 19.1348 5.33198 18.8784 5.45001C18.6287 5.55206 18.3813 5.65978 18.1362 5.77317C17.9025 5.88193 17.6801 5.98605 17.4691 6.08553C17.2695 6.18037 17.1276 6.23835 17.0435 6.25947C16.997 6.43739 16.9774 6.69708 16.9847 7.03853C17.0033 7.37533 17.0299 7.71549 17.0644 8.05901C17.1057 8.38654 17.1331 8.68002 17.1465 8.93946C17.1713 9.19426 17.1643 9.32295 17.1256 9.32551C17.0916 9.33943 17.0505 9.33632 17.0026 9.31619C16.856 9.21712 16.6886 9.06697 16.5003 8.86576C16.3233 8.65991 16.136 8.44504 15.9384 8.22113C15.7408 7.99722 15.5444 7.79265 15.3494 7.60743C15.1497 7.41086 14.9756 7.2767 14.827 7.20496L14.81 7.21192C14.6216 7.30212 14.4253 7.38897 14.221 7.47246C14.0121 7.54461 13.8054 7.62242 13.6011 7.70592C13.3922 7.77806 13.1935 7.85923 13.0052 7.94943C12.8169 8.03963 12.6582 8.13758 12.5292 8.24328C13.1495 9.79131 13.6907 11.1464 14.1531 12.3086C14.6268 13.4661 15.0298 14.4671 15.3621 15.3116C15.7057 16.1513 15.9936 16.8549 16.2258 17.4224C16.458 17.9898 16.6461 18.4494 16.7901 18.8012C16.9407 19.137 17.0566 19.3877 17.1376 19.5533C17.2186 19.7189 17.2741 19.8221 17.304 19.8628C17.3293 19.8922 17.3533 19.9023 17.376 19.893C17.7392 19.7446 18.1388 19.5879 18.5748 19.423C19.0107 19.2581 19.3987 19.0731 19.7387 18.8679C19.2387 17.8403 18.7488 16.7888 18.2689 15.7132C17.8004 14.633 17.3933 13.541 17.0476 12.4372C17.0476 12.4372 17.0878 12.4869 17.1683 12.5865C17.2601 12.6814 17.3693 12.8024 17.4957 12.9495C17.6221 13.0965 17.7668 13.2559 17.9299 13.4277C18.0929 13.5995 18.2456 13.7623 18.3881 13.916C18.5418 14.0651 18.6783 14.1882 18.7975 14.2852C18.9234 14.3662 19.0147 14.3951 19.0714 14.3719C19.1168 14.3534 19.1408 14.2177 19.1434 13.965C19.146 13.7123 19.1403 13.4232 19.1264 13.0977C19.1124 12.7723 19.1031 12.4582 19.0985 12.1554C19.0892 11.8413 19.0987 11.6056 19.1271 11.4483C19.3789 11.9017 19.6322 12.4075 19.8871 12.9657C20.1534 13.5192 20.4072 14.091 20.6487 14.6811C20.9016 15.2666 21.1441 15.8431 21.3763 16.4105C21.6198 16.9733 21.8528 17.494 22.0752 17.9727C22.2114 17.9171 22.3703 17.8521 22.5519 17.7779C22.7402 17.6877 22.9365 17.6009 23.1409 17.5174C23.3452 17.4339 23.5495 17.3504 23.7538 17.2669C23.9581 17.1834 24.15 17.1182 24.3296 17.0713L22.1585 11.6202Z" fill="#C63A2F"/>
<path d="M27.3576 6.72574C27.1627 6.31605 26.8704 5.973 26.4809 5.6966C26.097 5.46893 25.6719 5.31383 25.2059 5.23129C24.7506 5.13518 24.284 5.10207 23.806 5.13196C23.3403 5.16046 22.8755 5.25057 22.4115 5.40229C21.9583 5.54043 21.5418 5.72991 21.1621 5.97074C21.0148 6.08629 20.8873 6.21193 20.7794 6.34766C20.4505 6.81718 20.2511 7.33978 20.1811 7.91548C20.122 8.47761 20.1177 9.03347 20.1682 9.58308C20.2173 10.5525 20.3152 11.5163 20.4618 12.4745C20.6192 13.4192 20.7705 14.3645 20.9157 15.3106C20.9683 15.6625 21.0391 16.0123 21.1283 16.3601C21.2282 16.6942 21.3808 17.0038 21.5862 17.2889C21.7237 17.52 21.8868 17.7051 22.0755 17.844C22.2628 17.9707 22.4655 18.0709 22.6838 18.1447C22.9142 18.2172 23.1472 18.2584 23.3829 18.2685C23.6321 18.2894 23.886 18.2975 24.1447 18.2926C24.5008 18.2767 24.848 18.237 25.1863 18.1737C25.5368 18.109 25.877 18.0084 26.207 17.872C26.5735 17.7314 26.9115 17.5571 27.2209 17.3489C27.5412 17.1273 27.7881 16.8584 27.9618 16.5424C28.1407 16.164 28.2606 15.7554 28.3215 15.3165C28.3809 14.8654 28.3985 14.4253 28.3741 13.9961L28.36 13.3868C28.3363 12.7478 28.2835 12.1244 28.2017 11.5166C28.1198 10.9089 28.0603 10.2801 28.023 9.63026C28.0003 9.32431 27.9662 9.02583 27.9206 8.73484C27.8858 8.43028 27.8387 8.12711 27.7796 7.82533C27.7329 7.63319 27.6748 7.44854 27.6051 7.27136C27.5463 7.08062 27.4638 6.89874 27.3576 6.72574ZM26.0124 12.285C26.0152 12.3093 26.021 12.4136 26.0297 12.5977C26.0506 12.7804 26.0689 12.9943 26.0846 13.2394C26.0894 13.498 26.1009 13.7065 26.1191 13.8649C26.148 14.0097 26.1626 14.1376 26.1629 14.2486C26.1633 14.3596 26.1447 14.4667 26.1071 14.5697C26.0681 14.6605 26.0022 14.7853 25.9092 14.944C25.7502 15.172 25.5422 15.35 25.2853 15.4781C25.0271 15.594 24.7632 15.6611 24.4938 15.6795C24.223 15.6858 23.9642 15.6351 23.7174 15.5275C23.4706 15.42 23.2724 15.2513 23.1227 15.0216C22.9549 14.6335 22.8337 14.2215 22.7592 13.7857C22.6833 13.3377 22.5905 12.904 22.4808 12.4846C22.398 11.9757 22.3334 11.4648 22.287 10.9517C22.2529 10.4373 22.2581 9.943 22.3026 9.46893C22.3903 8.94057 22.6285 8.48758 23.0173 8.10996C23.1955 7.94151 23.4091 7.81223 23.6579 7.7221C23.9068 7.63197 24.1586 7.62173 24.4134 7.69136C24.709 7.79338 24.9519 7.97544 25.1423 8.23755C25.3449 8.49827 25.4779 8.7978 25.5413 9.13612C25.5772 9.34184 25.6151 9.56582 25.6552 9.80808C25.706 10.0368 25.7321 10.1572 25.7335 10.1694L25.9121 11.4078L26.0124 12.285Z" fill="#C63A2F"/>
<path d="M31.7532 5.85317C31.4905 7.28934 31.259 8.72393 31.0587 10.157C30.8705 11.5918 30.6878 12.9902 30.5104 14.3523C30.4713 14.5324 30.4148 14.7038 30.3411 14.8664C30.2692 15.0169 30.1748 15.1516 30.058 15.2707C29.9551 15.3794 29.8324 15.4542 29.69 15.495C29.5476 15.5359 29.3881 15.5247 29.2115 15.4613C28.995 15.4168 28.8308 15.3119 28.719 15.1466C28.6072 14.9813 28.5241 14.7892 28.4698 14.5705C28.4173 14.3395 28.39 14.1062 28.3878 13.8703C28.3995 13.6242 28.4128 13.4092 28.4277 13.2255L28.4412 13.1345L28.4439 13.1163C28.231 13.0476 27.9929 12.9813 27.7297 12.9175C27.4785 12.8555 27.2256 12.8056 26.9709 12.7678C26.7162 12.7301 26.4666 12.6993 26.2222 12.6755C25.99 12.6534 25.7923 12.6489 25.6292 12.6619C25.5366 13.1193 25.467 13.6296 25.4206 14.1929C25.3881 14.7459 25.4129 15.2888 25.495 15.8216C25.5789 16.3422 25.7436 16.8191 25.9892 17.2522C26.2349 17.6853 26.5955 18.0114 27.0712 18.2307C27.5991 18.4329 28.1689 18.5607 28.7808 18.6142C29.3909 18.6798 29.9695 18.623 30.5168 18.4438C31.1053 18.3203 31.5715 18.0609 31.9153 17.6656C32.2712 17.2721 32.5433 16.8166 32.7317 16.2991C32.9322 15.7834 33.0808 15.2415 33.1775 14.6732C33.2761 14.0928 33.3744 13.5557 33.4724 13.0621C33.6713 11.8891 33.8329 10.7169 33.9572 9.5453C34.0815 8.37372 34.2404 7.21966 34.4339 6.08313L31.7721 5.72582L31.7532 5.85317Z" fill="#C63A2F"/>
<path d="M37.3411 15.0283C37.3774 14.8173 37.4257 14.5314 37.4857 14.1706C37.5458 13.8098 37.6146 13.4127 37.6921 12.9794C37.7697 12.5461 37.8487 12.0935 37.9294 11.6215C38.0213 11.1544 38.1012 10.7154 38.1692 10.3047C38.2532 9.88746 38.3181 9.51537 38.3638 9.18843C38.4255 8.85499 38.4706 8.60773 38.4991 8.44665C38.1122 8.32244 37.7979 8.21568 37.556 8.12638C37.3303 8.03058 37.144 7.95155 36.9973 7.88928C36.8505 7.82701 36.732 7.77672 36.6417 7.7384C36.5514 7.70008 36.4644 7.6698 36.3806 7.64756C35.726 8.43542 35.0916 9.23851 34.4775 10.0568C33.8633 10.8751 33.2804 11.6668 32.7288 12.4317C32.1773 13.1967 31.6675 13.9261 31.1995 14.62C30.7475 15.3073 30.3484 15.9172 30.0023 16.4496C29.6561 16.9821 29.3781 17.4169 29.1682 17.7541C28.9583 18.0912 28.8253 18.2945 28.7691 18.364C28.7756 18.38 28.7845 18.3905 28.7958 18.3953C29.5682 18.7097 30.1302 18.9548 30.4818 19.1307C30.8334 19.3065 31.0591 19.4023 31.159 19.4181C31.1703 19.4228 31.176 19.4252 31.176 19.4252C31.192 19.4187 31.2057 19.4179 31.217 19.4227C31.4001 19.2739 31.5727 19.0874 31.7346 18.8631C31.8965 18.6388 32.0552 18.4064 32.2107 18.166C32.3822 17.9191 32.5409 17.6867 32.6868 17.4689C32.8487 17.2446 33.0075 17.0589 33.1633 16.9119C33.2874 16.9645 33.3834 17.0053 33.4511 17.034C33.5349 17.0562 33.605 17.0793 33.6615 17.1033C33.7292 17.132 33.8026 17.1632 33.8816 17.1967C33.9606 17.2302 34.0687 17.2894 34.2058 17.3742C34.2129 17.5771 34.2 17.8113 34.167 18.0771C34.134 18.3428 34.0906 18.6174 34.0367 18.9009C33.9942 19.1892 33.9483 19.4695 33.8993 19.7417C33.8615 20.0187 33.8381 20.2619 33.8291 20.4712L33.846 20.4784C34.1737 20.7106 34.5383 20.9186 34.9398 21.1024C35.3366 21.2974 35.7187 21.4329 36.0861 21.5088L36.0933 21.4919L37.3411 15.0283ZM35.1465 15.3957C34.932 15.3047 34.7152 15.2194 34.4959 15.1397C34.2814 15.0486 34.0807 14.9568 33.8936 14.8641C34.2171 14.3221 34.5127 13.8147 34.7801 13.3421C35.0588 12.8743 35.2903 12.4864 35.4745 12.1782C35.67 11.8749 35.8176 11.6845 35.9172 11.6068C36.0329 11.5227 36.0782 11.5886 36.0531 11.8044C36.0393 12.025 35.9568 12.4229 35.8056 12.9981C35.6657 13.5781 35.446 14.3773 35.1465 15.3957Z" fill="#C63A2F"/>
<path d="M8.14597 56.6276C8.64093 56.3648 9.16455 56.1249 9.71685 55.9081C10.2692 55.6913 10.8215 55.4745 11.3737 55.2577C11.9356 55.0486 12.4783 54.8241 13.002 54.5843C13.5352 54.3521 14.0206 54.0815 14.4582 53.7725C14.1908 53.4789 13.8774 53.2034 13.518 52.946C13.1585 52.6885 12.8336 52.4273 12.5432 52.1624C12.1118 52.2876 11.6996 52.4282 11.3064 52.5841C10.9228 52.7478 10.5393 52.9114 10.1557 53.075C9.78167 53.2464 9.40194 53.4052 9.01649 53.5516C8.63105 53.698 8.23418 53.8195 7.82588 53.9161C7.79139 53.9198 7.75305 53.9283 7.71087 53.9416C7.68594 53.953 7.67731 53.954 7.685 53.9444C8.10415 53.3846 8.56071 52.8077 9.05466 52.2136C9.54862 51.6195 10.0052 51.0425 10.4243 50.4827C10.1185 50.2369 9.80219 49.9748 9.47539 49.6963C9.16583 49.416 8.84952 49.1539 8.52645 48.9099C7.19045 50.5892 5.82485 52.2368 4.42965 53.8527C3.05169 55.4667 1.7397 57.1259 0.493667 58.8303C0.59484 58.9588 0.728529 59.1056 0.894733 59.2707C1.07049 59.4434 1.25872 59.6105 1.45942 59.7718C1.66011 59.9331 1.85894 60.0772 2.0559 60.2041C2.24517 60.3405 2.42208 60.4434 2.58663 60.5127C2.80192 60.2453 3.03165 59.9501 3.27583 59.6272C3.52956 59.312 3.78236 58.9882 4.03423 58.6557C4.28609 58.3233 4.53411 57.9956 4.77829 57.6727C5.03971 57.348 5.28669 57.0509 5.51922 56.7816C5.45684 57.172 5.36755 57.5958 5.25135 58.053C5.13516 58.5102 5.01511 58.9722 4.89122 59.439C4.77689 59.9135 4.67503 60.3822 4.58563 60.8453C4.50392 61.2988 4.47115 61.7208 4.48731 62.1114C4.78545 62.3668 5.10363 62.6461 5.44186 62.9495C5.78964 63.2605 6.14336 63.5055 6.503 63.6845L8.14597 56.6276Z" fill="#C63A2F"/>
<path d="M15.1257 65.5812C15.1571 65.4875 15.1993 65.3853 15.2524 65.2748C15.3218 65.1585 15.3886 65.0477 15.4527 64.9425C15.5221 64.8262 15.586 64.7072 15.6443 64.5856C15.5506 64.5543 15.3876 64.483 15.1554 64.3717C14.9395 64.2546 14.685 64.119 14.3917 63.9649C14.1096 63.816 13.8052 63.6566 13.4788 63.4866C13.1688 63.3108 12.8726 63.1484 12.5905 62.9996C12.3083 62.8508 12.0566 62.7233 11.8355 62.6173C11.6307 62.5056 11.4843 62.4422 11.3963 62.4272L11.4042 62.4107C11.7548 61.7085 12.105 60.9789 12.4547 60.2218C12.8208 59.4591 13.1814 58.6936 13.5364 57.9256C13.8914 57.1575 14.2438 56.395 14.5935 55.6379C14.9596 54.8752 15.3261 54.1398 15.6931 53.4318C15.5701 53.2913 15.3894 53.1435 15.151 52.9885C14.9126 52.8334 14.6607 52.6923 14.3953 52.5651C14.13 52.4379 13.8732 52.3353 13.6251 52.2571C13.3823 52.168 13.195 52.119 13.0632 52.1102C12.7028 52.8893 12.3743 53.6021 12.0777 54.2486C11.7863 54.884 11.5109 55.4863 11.2513 56.0554C10.9918 56.6244 10.7321 57.1798 10.4721 57.7215C10.2121 58.2632 9.93601 58.8243 9.64375 59.4049C9.36787 59.9798 9.05704 60.5991 8.71129 61.2628C8.37084 61.9155 7.98507 62.6484 7.55398 63.4616L7.41073 63.7601C8.73807 64.4235 9.79982 64.9459 10.596 65.3275C11.4032 65.7144 12.0361 66.0109 12.4947 66.2171C12.9645 66.4287 13.296 66.5739 13.4893 66.653C13.6936 66.7373 13.8539 66.8142 13.9703 66.8835C14.0919 66.9418 14.1859 66.9868 14.2522 67.0186C14.3239 67.0394 14.392 67.0108 14.4565 66.933C14.5375 66.8494 14.6257 66.7081 14.7212 66.5091C14.822 66.2991 14.9568 65.9898 15.1257 65.5812Z" fill="#C63A2F"/>
<path d="M24.9885 57.8394C24.9345 57.3889 24.7671 56.9707 24.4861 56.5845C24.1949 56.2463 23.8416 55.9639 23.4262 55.737C23.0254 55.5008 22.5937 55.3207 22.1312 55.1967C21.6807 55.0752 21.2114 55.0124 20.7232 55.0083C20.2496 54.9947 19.7944 55.0415 19.3576 55.1487C19.1812 55.2113 19.0202 55.2897 18.8746 55.3839C18.4129 55.724 18.0571 56.1557 17.807 56.679C17.5715 57.1929 17.39 57.7184 17.2624 58.2553C16.9995 59.1897 16.7846 60.1343 16.6176 61.0892C16.4652 62.0347 16.3068 62.9789 16.1424 63.9218C16.0799 64.2721 16.0354 64.6262 16.0089 64.9841C15.9969 65.3327 16.0427 65.6748 16.1464 66.0105C16.2029 66.2733 16.2984 66.5007 16.4329 66.6925C16.5699 66.8723 16.7301 67.0319 16.9134 67.1714C17.1087 67.3135 17.3164 67.4269 17.5365 67.5117C17.766 67.6109 18.0041 67.6995 18.2508 67.7773C18.5934 67.8757 18.9351 67.9488 19.276 67.9967C19.6288 68.0471 19.9834 68.0603 20.3397 68.0362C20.7319 68.0198 21.1079 67.9623 21.4676 67.8637C21.8419 67.7557 22.1618 67.5796 22.4273 67.3355C22.7176 67.0339 22.9617 66.6849 23.1595 66.2883C23.3599 65.8798 23.517 65.4683 23.6309 65.0538L23.812 64.4718C23.9936 63.8586 24.1426 63.251 24.259 62.6489C24.3755 62.0468 24.5197 61.4319 24.6919 60.8042C24.7681 60.507 24.831 60.2132 24.8807 59.9229C24.9449 59.6232 24.9971 59.3209 25.0374 59.016C25.0545 58.819 25.0583 58.6255 25.0489 58.4354C25.054 58.2358 25.0339 58.0372 24.9885 57.8394ZM21.9389 62.6792C21.9337 62.7031 21.9059 62.8038 21.8554 62.981C21.8168 63.1609 21.7659 63.3694 21.7025 63.6067C21.6246 63.8533 21.5689 64.0546 21.5355 64.2105C21.5167 64.3569 21.4897 64.4828 21.4546 64.5881C21.4195 64.6935 21.3677 64.789 21.2992 64.8746C21.2333 64.9483 21.1309 65.0455 20.9922 65.1663C20.7686 65.3317 20.5147 65.4341 20.2304 65.4736C19.9486 65.501 19.6771 65.4806 19.4159 65.4121C19.1572 65.3317 18.9281 65.2012 18.7285 65.0206C18.529 64.8399 18.3949 64.6169 18.3264 64.3514C18.2913 63.9301 18.308 63.5011 18.3765 63.0643C18.4475 62.6156 18.498 62.175 18.528 61.7425C18.6119 61.2338 18.7138 60.7289 18.8337 60.2279C18.9655 59.7295 19.1283 59.2627 19.3218 58.8276C19.5736 58.3548 19.944 58.0015 20.433 57.7675C20.6557 57.6647 20.8993 57.6103 21.164 57.6042C21.4286 57.5981 21.6706 57.6687 21.8898 57.8159C22.1374 58.0068 22.3095 58.2568 22.4063 58.5659C22.5151 58.8776 22.5455 59.2039 22.4976 59.5447C22.4659 59.7511 22.4304 59.9755 22.391 60.2178C22.3661 60.4508 22.3524 60.5732 22.3499 60.5852L22.1238 61.8159L21.9389 62.6792Z" fill="#C63A2F"/>
<path d="M32.4411 58.9186C32.3823 58.2212 32.2043 57.6317 31.907 57.1504C31.6097 56.669 31.2354 56.2759 30.7842 55.9711C30.3448 55.6537 29.8407 55.4242 29.272 55.2825C28.7028 55.1287 28.1172 55.0366 27.5151 55.0065C26.9253 54.9759 26.3311 55.0007 25.7324 55.0809C25.1461 55.1606 24.6038 55.2758 24.1055 55.4264C24.1743 56.4425 24.2262 57.5082 24.2613 58.6235C24.3086 59.7384 24.3497 60.8473 24.3844 61.9503C24.4191 63.0534 24.453 64.1319 24.4861 65.1859C24.5189 66.2276 24.5677 67.1953 24.6326 68.0888C24.8418 68.1068 25.0875 68.1174 25.3697 68.1208C25.652 68.1242 25.9341 68.1215 26.216 68.1127C26.5097 68.0912 26.7851 68.0702 27.0421 68.0499C27.3109 68.0169 27.5304 67.9732 27.7004 67.9188C27.7127 67.9184 27.7188 67.9182 27.7188 67.9182C27.7307 67.9056 27.7427 67.8991 27.755 67.8987L27.7544 67.8803C27.7018 66.9864 27.661 66.2761 27.6322 65.7495C27.6156 65.2225 27.6025 64.8058 27.5929 64.4994C27.5828 64.1808 27.5753 63.9418 27.5703 63.7825C27.5649 63.6109 27.5534 63.4395 27.5357 63.2683C28.1271 63.3479 28.7024 63.3053 29.2615 63.1405C29.8203 62.9635 30.3271 62.696 30.782 62.3382C31.237 61.9805 31.6099 61.5516 31.9009 61.0518C32.2041 60.5515 32.3833 60.0061 32.4383 59.4155C32.4482 59.3416 32.452 59.2679 32.4497 59.1943C32.447 59.1085 32.4443 59.0228 32.4416 58.937L32.4411 58.9186ZM29.1996 58.2475C29.362 58.3406 29.4884 58.4593 29.5789 58.6036C29.6815 58.7476 29.7478 58.905 29.7777 59.0758C29.8199 59.2463 29.8192 59.418 29.7755 59.5912C29.7442 59.7639 29.6816 59.9192 29.5878 60.0571C29.4453 60.2088 29.2711 60.3247 29.065 60.4048C28.8709 60.4722 28.6639 60.5216 28.444 60.5531C28.2365 60.5841 28.0226 60.6093 27.8023 60.6285C27.5817 60.6354 27.3736 60.6481 27.1779 60.6665L27.1227 60.6682C27.0557 60.4863 27.0064 60.2854 26.975 60.0656C26.9554 59.8331 26.9356 59.5945 26.9156 59.3498C26.9079 59.1047 26.9002 58.8595 26.8925 58.6144C26.897 58.3689 26.8897 58.1361 26.8705 57.9158C26.8824 57.9032 26.9006 57.8965 26.9251 57.8957C27.3142 57.7854 27.7121 57.7606 28.1189 57.8214C28.5253 57.87 28.8855 58.012 29.1996 58.2475Z" fill="#C63A2F"/>
<path d="M33.0414 54.0527C32.5071 54.1911 32.0953 54.288 31.806 54.3435C31.5259 54.3843 31.277 54.424 31.0593 54.4626C30.9758 54.4823 30.8431 54.5072 30.6612 54.5374C30.4885 54.5529 30.3737 54.5736 30.3168 54.5996L30.3253 54.6354C30.4542 55.6632 30.6424 56.7022 30.89 57.7525C31.1467 58.788 31.4136 59.84 31.6907 60.9085C31.9769 61.9623 32.254 63.0308 32.5219 64.1141C32.7899 65.1973 33.0087 66.2858 33.1784 67.3796C33.2893 67.3157 33.5073 67.2518 33.8323 67.1879C34.1602 67.1359 34.4987 67.0751 34.8476 67.0056C35.2085 66.9332 35.5353 66.85 35.8281 66.7559C36.1356 66.6709 36.3258 66.5694 36.3988 66.4515C36.1 65.451 35.8222 64.4331 35.5655 63.3976C35.3088 62.3621 35.0641 61.3237 34.8312 60.2826C34.6075 59.2267 34.3852 58.1768 34.1643 57.1329C33.9553 56.0861 33.7299 55.0495 33.4879 54.0232L33.471 53.9515L33.0414 54.0527Z" fill="#C63A2F"/>
<path d="M37.6183 55.2438C37.6664 55.1137 37.7607 54.9961 37.9013 54.8909C38.053 54.7807 38.1962 54.6811 38.3307 54.5922C38.6487 54.4325 38.9134 54.3918 39.1249 54.47C39.3476 54.543 39.5406 54.6837 39.704 54.892C39.8623 55.0891 40.003 55.3213 40.126 55.5887C40.2603 55.8508 40.3928 56.08 40.5237 56.2763C40.9829 56.1596 41.4152 56.0283 41.8205 55.8824C42.2318 55.7202 42.6231 55.4998 42.9942 55.2212C42.9366 54.6269 42.7726 54.0949 42.5024 53.6254C42.2321 53.1558 41.8963 52.7636 41.4949 52.4489C41.0883 52.123 40.6324 51.8805 40.1272 51.7215C39.6219 51.5624 39.1029 51.4907 38.5701 51.5062C38.0433 51.5056 37.5216 51.6038 37.0049 51.8009C36.4881 51.998 36.012 52.298 35.5765 52.7007C35.441 52.817 35.3163 52.9418 35.2022 53.0752C35.0831 53.1975 34.9827 53.3314 34.9012 53.4768C34.7767 53.7635 34.6929 54.0652 34.6498 54.382C34.6178 54.6936 34.6183 55.0173 34.6514 55.353C34.6615 55.5508 34.6904 55.7602 34.7382 55.9811C34.792 56.1858 34.8736 56.3777 34.9831 56.5568C35.3874 57.4641 35.7429 58.2656 36.0498 58.9612C36.3626 59.6406 36.6447 60.2532 36.896 60.799C37.1534 61.3284 37.3876 61.8078 37.5988 62.2371C37.8099 62.6663 38.019 63.0763 38.2259 63.467C38.4859 63.9143 38.8102 64.2375 39.1989 64.4367C39.5988 64.6307 40.0235 64.7323 40.4732 64.7414C40.9178 64.7394 41.362 64.6634 41.8059 64.5132C42.2548 64.3742 42.667 64.1847 43.0424 63.9446C43.65 63.6517 44.1267 63.2503 44.4724 62.7404C44.8241 62.2143 45.0452 61.6537 45.1357 61.0588C45.2262 60.4638 45.1852 59.8618 45.0128 59.2528C44.8352 58.6327 44.5184 58.0766 44.0623 57.5845C43.8858 57.6117 43.6947 57.6658 43.4891 57.7469C43.2946 57.8228 43.097 57.9069 42.8965 57.9991C42.696 58.0913 42.498 58.1891 42.3026 58.2925C42.1184 58.3907 41.9431 58.4645 41.7769 58.514C41.8494 58.818 41.9579 59.1123 42.1024 59.3967C42.2529 59.6649 42.3259 59.9553 42.3213 60.2678C42.3125 60.5418 42.2197 60.7801 42.0431 60.9828C41.8724 61.1693 41.6594 61.3077 41.4041 61.3982C41.04 61.4576 40.7163 61.3703 40.433 61.1362C40.1557 60.8858 39.926 60.6068 39.7438 60.2992C39.5309 59.9247 39.3039 59.4758 39.0628 58.9523C38.8166 58.4177 38.5863 57.9028 38.3717 57.4076C38.1572 56.9124 37.9735 56.4841 37.8205 56.1225C37.6786 55.7559 37.6112 55.5507 37.6181 55.5071C37.6189 55.4797 37.6147 55.4411 37.6053 55.3915C37.602 55.3255 37.6063 55.2763 37.6183 55.2438Z" fill="#C63A2F"/>
<path d="M47.7786 52.3779C47.611 52.2446 47.3833 52.0649 47.0956 51.8388C46.808 51.6127 46.4927 51.3616 46.1499 51.0853C45.807 50.8091 45.4479 50.5222 45.0727 50.2247C44.707 49.9195 44.3604 49.6385 44.0327 49.3815C43.7071 49.1073 43.4118 48.8716 43.1469 48.6744C42.8841 48.46 42.6889 48.3016 42.5613 48.1992C42.2662 48.4785 42.0213 48.7026 41.8266 48.8716C41.634 49.0233 41.475 49.1485 41.3498 49.2472C41.2246 49.3458 41.1235 49.4255 41.0464 49.4862C40.9693 49.5469 40.9009 49.6086 40.8411 49.6714C41.2174 50.6236 41.6169 51.5656 42.0394 52.4971C42.4618 53.4287 42.876 54.3199 43.2818 55.171C43.6877 56.022 44.0824 56.8193 44.466 57.563C44.8516 58.2894 45.1947 58.9323 45.4953 59.4915C45.796 60.0508 46.0437 60.5034 46.2386 60.8495C46.4334 61.1955 46.5478 61.4097 46.5817 61.4923C46.5989 61.4943 46.6123 61.4916 46.622 61.484C47.2694 60.9584 47.7548 60.5838 48.0782 60.3602C48.4016 60.1367 48.5943 59.9849 48.6561 59.905C48.6658 59.8974 48.6706 59.8936 48.6706 59.8936C48.6726 59.8764 48.6784 59.864 48.6881 59.8564C48.6457 59.6244 48.565 59.3836 48.4461 59.1339C48.3272 58.8841 48.1997 58.6334 48.0635 58.3816C47.9294 58.1126 47.8019 57.8619 47.6809 57.6293C47.562 57.3796 47.4755 57.1512 47.4214 56.944C47.5274 56.8606 47.6093 56.7961 47.6671 56.7505C47.7269 56.6878 47.7809 56.6374 47.8291 56.5995C47.8868 56.554 47.9495 56.5047 48.0169 56.4515C48.0843 56.3984 48.1882 56.3322 48.3286 56.2528C48.51 56.3441 48.7093 56.468 48.9266 56.6247C49.1438 56.7813 49.3639 56.9514 49.5867 57.1349C49.8192 57.3108 50.043 57.4856 50.2583 57.6595C50.4831 57.8258 50.6852 57.9632 50.8645 58.0717L50.879 58.0603C51.2403 57.8849 51.5982 57.6654 51.9526 57.4018C52.3145 57.1479 52.6172 56.8783 52.8606 56.5929L52.8492 56.5784L47.7786 52.3779ZM47.0453 54.4775C46.8623 54.6216 46.6831 54.7706 46.5076 54.9244C46.3246 55.0686 46.1475 55.2003 45.9761 55.3197C45.6562 54.7756 45.3533 54.2728 45.0673 53.8113C44.791 53.3421 44.5619 52.9528 44.3802 52.6433C44.2081 52.3262 44.112 52.1053 44.0918 51.9807C44.0737 51.8389 44.1532 51.8309 44.3305 51.9566C44.5174 52.0747 44.8268 52.3383 45.2588 52.7473C45.7004 53.1487 46.2959 53.7254 47.0453 54.4775Z" fill="#C63A2F"/>
</svg>
