<svg width="23" height="23" viewBox="0 0 23 23" fill="none" xmlns="http://www.w3.org/2000/svg">
<g clip-path="url(#clip0_2208_3051)">
<path d="M11.0028 10.0712C9.48989 10.0712 8.25208 9.6012 7.28934 8.66122C6.3266 7.72125 5.84522 6.5127 5.84522 5.0356C5.84522 3.55849 6.3266 2.34994 7.28934 1.40997C8.25208 0.469989 9.48989 0 11.0028 0C12.5157 0 13.7535 0.469989 14.7162 1.40997C15.679 2.34994 16.1603 3.55849 16.1603 5.0356C16.1603 6.5127 15.679 7.72125 14.7162 8.66122C13.7535 9.6012 12.5157 10.0712 11.0028 10.0712ZM0 20.8474V17.6917C0 16.8413 0.217763 16.1139 0.65329 15.5096C1.08882 14.9054 1.65042 14.4466 2.33809 14.1332C3.87389 13.4618 5.34666 12.9583 6.75639 12.6226C8.16612 12.2869 9.58158 12.119 11.0028 12.119C12.424 12.119 13.8337 12.2924 15.232 12.6393C16.6302 12.9862 18.0973 13.4842 19.6331 14.1332C20.3437 14.4466 20.9167 14.9054 21.3523 15.5096C21.7878 16.1139 22.0056 16.8413 22.0056 17.6917V20.8474H0Z" fill="#C10016"/>
</g>
<defs>
<clipPath id="clip0_2208_3051">
<rect width="22.0056" height="22.0056" fill="white"/>
</clipPath>
</defs>
</svg>
