<svg width="18" height="18" viewBox="0 0 18 18" fill="none" xmlns="http://www.w3.org/2000/svg">
<path d="M13.1236 15.7922L16.2472 12.6834L15.3034 11.7372L13.1236 13.8773L12.2472 12.9987L11.3034 13.9675L13.1236 15.7922ZM2.69663 4.95619H13.4831V3.60451H2.69663V4.95619ZM13.7753 18C12.6067 18 11.6105 17.5832 10.7865 16.7497C9.96255 15.9161 9.55056 14.9287 9.55056 13.7872C9.55056 12.6158 9.96255 11.6133 10.7865 10.7797C11.6105 9.94618 12.6067 9.52941 13.7753 9.52941C14.9288 9.52941 15.9213 9.94618 16.7528 10.7797C17.5843 11.6133 18 12.6158 18 13.7872C18 14.9287 17.5843 15.9161 16.7528 16.7497C15.9213 17.5832 14.9288 18 13.7753 18ZM0 17.0989V1.35169C0 0.97622 0.131086 0.657071 0.393258 0.394243C0.655431 0.131414 0.973783 0 1.34831 0H14.8315C15.206 0 15.5243 0.131414 15.7865 0.394243C16.0487 0.657071 16.1798 0.97622 16.1798 1.35169V8.7184C15.97 8.61327 15.7528 8.52691 15.5281 8.45932C15.3034 8.39174 15.0712 8.33542 14.8315 8.29036V1.35169H1.34831V14.8461H8.31461C8.35955 15.1164 8.42697 15.3755 8.51685 15.6233C8.60674 15.8711 8.71161 16.1151 8.83146 16.3554L8.08989 17.0989L6.74157 15.7472L5.39326 17.0989L4.04494 15.7472L2.69663 17.0989L1.34831 15.7472L0 17.0989ZM2.69663 12.6158H8.35955C8.41948 12.3755 8.48315 12.1427 8.55056 11.9174C8.61798 11.6921 8.71161 11.4743 8.83146 11.2641H2.69663V12.6158ZM2.69663 8.78598H11.3258C11.6554 8.62078 12 8.48936 12.3596 8.39174C12.7191 8.29412 13.0936 8.23029 13.4831 8.20025V7.43429H2.69663V8.78598Z" fill="white"/>
</svg>
