<svg width="23" height="23" viewBox="0 0 23 23" fill="none" xmlns="http://www.w3.org/2000/svg">
<g clip-path="url(#clip0_1319_4469)">
<path d="M11.8521 10.8983C10.3393 10.8983 9.10145 10.4284 8.1387 9.48837C7.17596 8.54839 6.69459 7.33985 6.69459 5.86274C6.69459 4.38564 7.17596 3.17709 8.1387 2.23712C9.10145 1.29714 10.3393 0.827148 11.8521 0.827148C13.365 0.827148 14.6028 1.29714 15.5656 2.23712C16.5283 3.17709 17.0097 4.38564 17.0097 5.86274C17.0097 7.33985 16.5283 8.54839 15.5656 9.48837C14.6028 10.4284 13.365 10.8983 11.8521 10.8983ZM0.849365 21.6745V18.5189C0.849365 17.6684 1.06713 16.9411 1.50265 16.3368C1.93818 15.7325 2.49978 15.2737 3.18745 14.9604C4.72326 14.289 6.19603 13.7854 7.60576 13.4497C9.01549 13.114 10.4309 12.9461 11.8521 12.9461C13.2733 12.9461 14.6831 13.1196 16.0813 13.4665C17.4796 13.8134 18.9466 14.3114 20.4824 14.9604C21.193 15.2737 21.7661 15.7325 22.2016 16.3368C22.6372 16.9411 22.8549 17.6684 22.8549 18.5189V21.6745H0.849365Z" fill="#C10016"/>
</g>
<defs>
<clipPath id="clip0_1319_4469">
<rect width="22.0056" height="22.0056" fill="white" transform="translate(0.849365 0.827148)"/>
</clipPath>
</defs>
</svg>
