<svg width="23" height="23" viewBox="0 0 23 23" fill="none" xmlns="http://www.w3.org/2000/svg">
<g clip-path="url(#clip0_1319_4473)">
<path d="M4.79447 22.3361C4.34205 22.3361 3.9575 22.1833 3.64081 21.8777C3.32412 21.572 3.16577 21.2009 3.16577 20.7643V9.39476C3.16577 8.95814 3.32412 8.58701 3.64081 8.28138C3.9575 7.97575 4.34205 7.82293 4.79447 7.82293H6.69462V5.30801C6.69462 3.9283 7.1968 2.7538 8.20117 1.7845C9.20553 0.815212 10.4225 0.330566 11.8522 0.330566C13.2818 0.330566 14.4988 0.815212 15.5032 1.7845C16.5075 2.7538 17.0097 3.9283 17.0097 5.30801V7.82293H18.9099C19.3623 7.82293 19.7468 7.97575 20.0635 8.28138C20.3802 8.58701 20.5386 8.95814 20.5386 9.39476V20.7643C20.5386 21.2009 20.3802 21.572 20.0635 21.8777C19.7468 22.1833 19.3623 22.3361 18.9099 22.3361H4.79447ZM11.8522 17.0967C12.4313 17.0967 12.9244 16.9046 13.3316 16.5204C13.7388 16.1361 13.9423 15.6733 13.9423 15.1319C13.9423 14.608 13.7388 14.1321 13.3316 13.7042C12.9244 13.2763 12.4313 13.0623 11.8522 13.0623C11.2731 13.0623 10.7799 13.2763 10.3728 13.7042C9.96559 14.1321 9.76201 14.608 9.76201 15.1319C9.76201 15.6733 9.96559 16.1361 10.3728 16.5204C10.7799 16.9046 11.2731 17.0967 11.8522 17.0967ZM8.32332 7.82293H15.381V5.30801C15.381 4.36492 15.0372 3.56154 14.3495 2.89788C13.6618 2.23422 12.8294 1.90239 11.8522 1.90239C10.875 1.90239 10.0425 2.23422 9.35483 2.89788C8.66716 3.56154 8.32332 4.36492 8.32332 5.30801V7.82293Z" fill="#C10016"/>
</g>
<defs>
<clipPath id="clip0_1319_4473">
<rect width="22.0056" height="22.0056" fill="white" transform="translate(0.849365 0.330566)"/>
</clipPath>
</defs>
</svg>
