<svg width="23" height="23" viewBox="0 0 23 23" fill="none" xmlns="http://www.w3.org/2000/svg">
<path d="M5.76637 21.5808C5.40237 21.5808 5.08387 21.4386 4.81087 21.1543C4.53787 20.8701 4.40137 20.5384 4.40137 20.1594V2.15481C4.40137 1.77577 4.53787 1.4441 4.81087 1.15982C5.08387 0.87554 5.40237 0.733398 5.76637 0.733398H15.7764C16.1404 0.733398 16.4589 0.87554 16.7319 1.15982C17.0049 1.4441 17.1414 1.77577 17.1414 2.15481V20.1594C17.1414 20.5384 17.0049 20.8701 16.7319 21.1543C16.4589 21.4386 16.1404 21.5808 15.7764 21.5808H5.76637ZM10.7714 19.804C10.9686 19.804 11.1316 19.7369 11.2605 19.6026C11.3894 19.4684 11.4539 19.2986 11.4539 19.0933C11.4539 18.888 11.3894 18.7182 11.2605 18.584C11.1316 18.4497 10.9686 18.3826 10.7714 18.3826C10.5742 18.3826 10.4112 18.4497 10.2823 18.584C10.1534 18.7182 10.0889 18.888 10.0889 19.0933C10.0889 19.2986 10.1534 19.4684 10.2823 19.6026C10.4112 19.7369 10.5742 19.804 10.7714 19.804ZM5.76637 16.6058H15.7764V4.28693H5.76637V16.6058Z" fill="#C10016"/>
</svg>
