<svg width="23" height="23" viewBox="0 0 23 23" fill="none" xmlns="http://www.w3.org/2000/svg">
<path d="M6.61549 21.9304C6.25149 21.9304 5.93299 21.7882 5.65999 21.5039C5.38699 21.2197 5.25049 20.888 5.25049 20.509V2.50442C5.25049 2.12538 5.38699 1.79371 5.65999 1.50943C5.93299 1.22515 6.25149 1.08301 6.61549 1.08301H16.6255C16.9895 1.08301 17.308 1.22515 17.581 1.50943C17.854 1.79371 17.9905 2.12538 17.9905 2.50442V20.509C17.9905 20.888 17.854 21.2197 17.581 21.5039C17.308 21.7882 16.9895 21.9304 16.6255 21.9304H6.61549ZM11.6205 20.1536C11.8177 20.1536 11.9807 20.0865 12.1096 19.9522C12.2386 19.818 12.303 19.6482 12.303 19.4429C12.303 19.2376 12.2386 19.0678 12.1096 18.9336C11.9807 18.7993 11.8177 18.7322 11.6205 18.7322C11.4233 18.7322 11.2603 18.7993 11.1314 18.9336C11.0025 19.0678 10.938 19.2376 10.938 19.4429C10.938 19.6482 11.0025 19.818 11.1314 19.9522C11.2603 20.0865 11.4233 20.1536 11.6205 20.1536ZM6.61549 16.9554H16.6255V4.63654H6.61549V16.9554Z" fill="#C10016"/>
</svg>
