<svg width="32" height="32" viewBox="0 0 32 32" fill="none" xmlns="http://www.w3.org/2000/svg">
<path d="M25.9524 28.1903C23.2844 28.1903 20.6327 27.5343 17.9974 26.2221C15.3621 24.9099 12.9948 23.2041 10.8953 21.1046C8.79581 19.0052 7.08999 16.6378 5.77782 14.0025C4.46566 11.3672 3.80957 8.71556 3.80957 6.04748C3.80957 5.63196 3.95172 5.28205 4.23603 4.99774C4.52033 4.71344 4.87024 4.57129 5.28576 4.57129H9.87835C10.1845 4.57129 10.4524 4.67517 10.6821 4.88293C10.9117 5.09069 11.0593 5.36953 11.1249 5.71944L12.0106 9.85277C12.0544 10.1589 12.0489 10.4378 11.9942 10.6893C11.9396 10.9408 11.8247 11.154 11.6498 11.329L8.36936 14.6422C9.59405 16.6761 10.9664 18.4475 12.4863 19.9565C14.0062 21.4655 15.7284 22.7448 17.653 23.7946L20.7694 20.5798C20.9881 20.3392 21.2396 20.1697 21.5239 20.0713C21.8082 19.9729 22.0925 19.9565 22.3768 20.0221L26.2805 20.875C26.6085 20.9406 26.8819 21.1046 27.1006 21.3671C27.3193 21.6295 27.4286 21.9357 27.4286 22.2856V26.7141C27.4286 27.1297 27.2865 27.4796 27.0022 27.7639C26.7179 28.0482 26.368 28.1903 25.9524 28.1903Z" fill="#C10016"/>
</svg>
