<svg width="68" height="73" viewBox="0 0 68 73" fill="none" xmlns="http://www.w3.org/2000/svg">
<circle cx="34" cy="34" r="34" fill="#F5C8C8"/>
<mask id="mask0_1751_7553" style="mask-type:alpha" maskUnits="userSpaceOnUse" x="4" y="11" width="60" height="62">
<g clip-path="url(#clip0_1751_7553)">
<path d="M34.0003 39.2227C29.967 39.2227 26.667 37.9057 24.1003 35.2716C21.5337 32.6374 20.2503 29.2507 20.2503 25.1114C20.2503 20.972 21.5337 17.5853 24.1003 14.9512C26.667 12.3171 29.967 11 34.0003 11C38.0337 11 41.3337 12.3171 43.9003 14.9512C46.467 17.5853 47.7503 20.972 47.7503 25.1114C47.7503 29.2507 46.467 32.6374 43.9003 35.2716C41.3337 37.9057 38.0337 39.2227 34.0003 39.2227ZM4.66699 69.4211V60.5779C4.66699 58.1947 5.24755 56.1564 6.40866 54.463C7.56977 52.7697 9.06699 51.4839 10.9003 50.6059C14.9948 48.7244 18.9212 47.3133 22.6795 46.3725C26.4378 45.4317 30.2114 44.9614 34.0003 44.9614C37.7892 44.9614 41.5475 45.4474 45.2753 46.4195C49.0031 47.3917 52.9142 48.7871 57.0087 50.6059C58.9031 51.4839 60.4309 52.7697 61.592 54.463C62.7531 56.1564 63.3337 58.1947 63.3337 60.5779V69.4211H4.66699Z" fill="#C10016"/>
</g>
</mask>
<g mask="url(#mask0_1751_7553)">
<circle cx="34" cy="34.334" r="34" fill="#C25864"/>
</g>
<defs>
<clipPath id="clip0_1751_7553">
<rect width="58.6667" height="61.6667" fill="white" transform="translate(4.66699 11)"/>
</clipPath>
</defs>
</svg>
