<svg width="28" height="22" viewBox="0 0 28 22" fill="none" xmlns="http://www.w3.org/2000/svg">
<path d="M17.7367 11.3452H18.2769L23.7162 6.51023L23.176 6.03001L17.7367 10.8649V11.3452ZM25.2756 6.04093L23.704 4.64393L24.2196 4.18554C24.3588 4.06185 24.5307 4 24.7353 4C24.94 4 25.1119 4.06185 25.251 4.18554L25.7913 4.66576C25.9304 4.78945 26 4.94225 26 5.12415C26 5.30605 25.9304 5.45884 25.7913 5.58254L25.2756 6.04093ZM24.7599 6.49932L18.5716 12H17V10.603L23.1883 5.10232L24.7599 6.49932ZM23.4461 6.27012L23.176 6.03001L23.7162 6.51023L23.4461 6.27012Z" fill="white"/>
<path d="M11 10.2126C9.7625 10.2126 8.75 9.82931 7.9625 9.0628C7.175 8.2963 6.78125 7.31079 6.78125 6.10628C6.78125 4.90177 7.175 3.91626 7.9625 3.14976C8.75 2.38325 9.7625 2 11 2C12.2375 2 13.25 2.38325 14.0375 3.14976C14.825 3.91626 15.2188 4.90177 15.2188 6.10628C15.2188 7.31079 14.825 8.2963 14.0375 9.0628C13.25 9.82931 12.2375 10.2126 11 10.2126ZM2 19V16.4267C2 15.7332 2.17812 15.1401 2.53437 14.6473C2.89062 14.1546 3.35 13.7805 3.9125 13.525C5.16875 12.9775 6.37344 12.5668 7.52656 12.2931C8.67969 12.0193 9.8375 11.8824 11 11.8824C12.1625 11.8824 13.3156 12.0239 14.4594 12.3068C15.6031 12.5896 16.8031 12.9957 18.0594 13.525C18.6406 13.7805 19.1094 14.1546 19.4656 14.6473C19.8219 15.1401 20 15.7332 20 16.4267V19H2Z" fill="white"/>
</svg>
