<svg width="9" height="9" viewBox="0 0 9 9" fill="none" xmlns="http://www.w3.org/2000/svg">
<path d="M8.82656 6.83775L6.48832 4.49975L8.82582 2.162C8.84884 2.13898 8.86711 2.11164 8.87957 2.08156C8.89204 2.05147 8.89845 2.01922 8.89845 1.98666C8.89845 1.95409 8.89204 1.92185 8.87957 1.89176C8.86711 1.86168 8.84884 1.83434 8.82582 1.81132L7.18832 0.173445C7.1418 0.12693 7.0787 0.1008 7.01291 0.1008C6.94712 0.1008 6.88403 0.12693 6.83751 0.173445L4.49963 2.51119L2.16213 0.173445C2.06913 0.0803187 1.90445 0.0803187 1.81132 0.173445L0.173451 1.81107C0.126997 1.85762 0.100908 1.9207 0.100908 1.98647C0.100908 2.05224 0.126997 2.11532 0.173451 2.16188L2.51132 4.49975L0.173077 6.83788C0.126654 6.88445 0.100586 6.94752 0.100586 7.01328C0.100586 7.07904 0.126654 7.14212 0.173077 7.18869L1.8107 8.82643C1.83372 8.84949 1.86106 8.86779 1.89116 8.88027C1.92126 8.89276 1.95352 8.89918 1.9861 8.89918C2.01869 8.89918 2.05095 8.89276 2.08105 8.88027C2.11115 8.86779 2.13849 8.84949 2.16151 8.82643L4.49963 6.48831L6.83788 8.82631C6.88638 8.87468 6.94958 8.89899 7.01329 8.89899C7.07699 8.89899 7.14032 8.87468 7.18882 8.82631L8.82669 7.18856C8.87319 7.14202 8.89929 7.07892 8.89927 7.01313C8.89925 6.94734 8.87309 6.88426 8.82656 6.83775Z" fill="white"/>
</svg>
