<svg width="28" height="22" viewBox="0 0 28 22" fill="none" xmlns="http://www.w3.org/2000/svg">
<path d="M16.1236 17.7922L19.2472 14.6834L18.3034 13.7372L16.1236 15.8773L15.2472 14.9987L14.3034 15.9675L16.1236 17.7922ZM5.69663 6.95619H16.4831V5.60451H5.69663V6.95619ZM16.7753 20C15.6067 20 14.6105 19.5832 13.7865 18.7497C12.9625 17.9161 12.5506 16.9287 12.5506 15.7872C12.5506 14.6158 12.9625 13.6133 13.7865 12.7797C14.6105 11.9462 15.6067 11.5294 16.7753 11.5294C17.9288 11.5294 18.9213 11.9462 19.7528 12.7797C20.5843 13.6133 21 14.6158 21 15.7872C21 16.9287 20.5843 17.9161 19.7528 18.7497C18.9213 19.5832 17.9288 20 16.7753 20ZM3 19.0989V3.35169C3 2.97622 3.13109 2.65707 3.39326 2.39424C3.65543 2.13141 3.97378 2 4.34831 2H17.8315C18.206 2 18.5243 2.13141 18.7865 2.39424C19.0487 2.65707 19.1798 2.97622 19.1798 3.35169V10.7184C18.97 10.6133 18.7528 10.5269 18.5281 10.4593C18.3034 10.3917 18.0712 10.3354 17.8315 10.2904V3.35169H4.34831V16.8461H11.3146C11.3596 17.1164 11.427 17.3755 11.5169 17.6233C11.6067 17.8711 11.7116 18.1151 11.8315 18.3554L11.0899 19.0989L9.74157 17.7472L8.39326 19.0989L7.04494 17.7472L5.69663 19.0989L4.34831 17.7472L3 19.0989ZM5.69663 14.6158H11.3596C11.4195 14.3755 11.4831 14.1427 11.5506 13.9174C11.618 13.6921 11.7116 13.4743 11.8315 13.2641H5.69663V14.6158ZM5.69663 10.786H14.3258C14.6554 10.6208 15 10.4894 15.3596 10.3917C15.7191 10.2941 16.0936 10.2303 16.4831 10.2003V9.43429H5.69663V10.786Z" fill="white"/>
</svg>
