<svg width="25" height="19" viewBox="0 0 25 19" fill="none" xmlns="http://www.w3.org/2000/svg">
<path d="M12.498 14.25H4.998V8.3125H2.498V17.8125C2.498 18.4693 3.05659 19 3.748 19H13.748C14.4394 19 14.998 18.4693 14.998 17.8125V8.3125H12.498V14.25ZM24.7871 5.27695L21.455 0.526953C21.2207 0.19668 20.83 0 20.4121 0H4.58394C4.16597 0 3.77534 0.19668 3.54488 0.526953L0.212844 5.27695C-0.341843 6.06738 0.251907 7.125 1.25191 7.125H23.748C24.7441 7.125 25.3378 6.06738 24.7871 5.27695ZM19.998 18.4062C19.998 18.7328 20.2792 19 20.623 19H21.873C22.2167 19 22.498 18.7328 22.498 18.4062V8.3125H19.998V18.4062Z" fill="#C63A2F"/>
</svg>
