<svg width="22" height="22" viewBox="0 0 22 22" fill="none" xmlns="http://www.w3.org/2000/svg">
<path d="M18.2801 19.8002L14.6401 16.1747C14.1346 16.3798 13.564 16.5373 12.9285 16.6471C12.2929 16.757 11.6501 16.8119 11.0001 16.8119C8.89124 16.8119 6.97735 16.215 5.25846 15.0212C3.53957 13.8273 2.27569 12.227 1.4668 10.2202C1.75569 9.45846 2.15652 8.71505 2.6693 7.98996C3.18207 7.26486 3.8068 6.57273 4.54346 5.91355L1.81346 3.14501L2.72346 2.2002L19.1251 18.8334L18.2801 19.8002ZM11.0001 13.9555C11.2024 13.9555 11.419 13.9372 11.6501 13.9006C11.8812 13.8639 12.0762 13.809 12.2351 13.7358L7.53346 8.96774C7.46124 9.14352 7.40707 9.34127 7.37096 9.56099C7.33485 9.78072 7.3168 10.0004 7.3168 10.2202C7.3168 11.2749 7.67791 12.1611 8.40013 12.8788C9.12235 13.5966 9.98902 13.9555 11.0001 13.9555ZM17.0235 14.8344L14.2285 11.9999C14.3729 11.7656 14.4849 11.4909 14.5643 11.176C14.6437 10.861 14.6835 10.5424 14.6835 10.2202C14.6835 9.18014 14.326 8.29757 13.611 7.57248C12.896 6.84739 12.0257 6.48484 11.0001 6.48484C10.6824 6.48484 10.3718 6.52146 10.0685 6.5947C9.76513 6.66794 9.49069 6.78513 9.24513 6.94626L6.8618 4.50731C7.36735 4.27294 8.01374 4.06786 8.80096 3.89208C9.58819 3.7163 10.3574 3.62841 11.1085 3.62841C13.174 3.62841 15.0626 4.22533 16.7743 5.41917C18.486 6.61301 19.739 8.21335 20.5335 10.2202C20.1579 11.1577 19.674 12.0146 19.0818 12.791C18.4896 13.5673 17.8035 14.2485 17.0235 14.8344ZM13.2751 11.0332L10.1985 7.91305C10.6174 7.75192 11.0507 7.71896 11.4985 7.81418C11.9462 7.90939 12.3362 8.11813 12.6685 8.4404C13.0007 8.77731 13.2318 9.1545 13.3618 9.57198C13.4918 9.98946 13.4629 10.4765 13.2751 11.0332Z" fill="#333333" fill-opacity="0.5"/>
</svg>
