<svg width="32" height="32" viewBox="0 0 32 32" fill="none" xmlns="http://www.w3.org/2000/svg">
<g clip-path="url(#clip0_1319_123)">
<path d="M21.5998 23.3522L23.3141 21.6379L17.257 15.5427V7.88553H14.9712V16.457L21.5998 23.3522ZM15.9998 31.2379C13.9173 31.2379 11.949 30.8379 10.0951 30.0379C8.24108 29.2379 6.62204 28.1458 5.23791 26.7617C3.85378 25.3776 2.76172 23.7585 1.96172 21.9046C1.16172 20.0506 0.761719 18.0824 0.761719 15.9998C0.761719 13.9173 1.16172 11.949 1.96172 10.0951C2.76172 8.24108 3.85378 6.62204 5.23791 5.23791C6.62204 3.85378 8.24108 2.76172 10.0951 1.96172C11.949 1.16172 13.9173 0.761719 15.9998 0.761719C18.0824 0.761719 20.0506 1.16172 21.9046 1.96172C23.7585 2.76172 25.3776 3.85378 26.7617 5.23791C28.1458 6.62204 29.2379 8.24108 30.0379 10.0951C30.8379 11.949 31.2379 13.9173 31.2379 15.9998C31.2379 18.0824 30.8379 20.0506 30.0379 21.9046C29.2379 23.7585 28.1458 25.3776 26.7617 26.7617C25.3776 28.1458 23.7585 29.2379 21.9046 30.0379C20.0506 30.8379 18.0824 31.2379 15.9998 31.2379Z" fill="#C10016"/>
</g>
<defs>
<clipPath id="clip0_1319_123">
<rect width="32" height="32" fill="white"/>
</clipPath>
</defs>
</svg>
